<?xml version="1.0" standalone="no"?>
<!DOCTYPE svg PUBLIC "-//W3C//DTD SVG 20010904//EN"
 "http://www.w3.org/TR/2001/REC-SVG-20010904/DTD/svg10.dtd">
<svg version="1.0" xmlns="http://www.w3.org/2000/svg"
 width="300.000000pt" height="240.000000pt" viewBox="0 0 300.000000 240.000000"
 preserveAspectRatio="xMidYMid meet">
<metadata>
Created by potrace 1.10, written by Peter Selinger 2001-2011
</metadata>
<g transform="translate(0.000000,240.000000) scale(0.050000,-0.050000)"
fill="#000000" stroke="none">
<path d="M1350 3541 c-182 -77 -492 -723 -463 -967 26 -217 181 -398 366 -425
60 -9 86 -22 80 -39 -5 -14 -29 -91 -53 -172 -83 -275 -321 -818 -425 -964
-55 -79 -26 -94 45 -23 103 105 347 649 463 1034 l47 155 81 0 c96 0 364 67
395 98 63 63 64 10 3 -133 -133 -307 -176 -620 -101 -734 38 -58 84 -70 62
-16 -89 215 14 647 238 1002 70 110 65 138 -11 74 -111 -94 -298 -175 -473
-205 -202 -35 -188 -48 -142 134 203 810 158 1294 -112 1181z m115 -66 c98
-75 49 -729 -89 -1200 -49 -164 -345 -4 -413 223 -89 298 328 1110 502 977z"/>
<path d="M3748 3482 c-160 -97 -311 -530 -358 -1027 -15 -152 -16 -153 -237
-235 l-109 -42 -14 -104 c-47 -356 -351 -602 -533 -431 l-67 63 92 27 c166 48
290 213 227 302 -96 138 -286 43 -352 -176 -14 -48 -36 -79 -55 -80 -24 -1
-21 -9 13 -32 25 -18 45 -43 45 -56 0 -37 104 -128 175 -152 178 -62 461 211
497 479 l14 106 132 62 c73 34 138 65 144 69 7 4 17 -149 23 -339 17 -569 63
-590 70 -31 l6 435 101 105 c267 279 482 772 419 962 -42 127 -125 161 -233
95z m140 -53 c126 -125 -62 -633 -355 -959 l-71 -80 -1 89 c-5 463 280 1097
427 950z m-1192 -1393 c61 -61 -6 -168 -147 -237 -106 -51 -118 -45 -101 49
26 135 182 254 248 188z"/>
<path d="M3985 2185 c-21 -30 -62 -95 -91 -145 -103 -174 -105 -176 -172 -112
-110 105 -237 -24 -174 -176 39 -94 93 -90 207 14 l45 41 45 -41 c188 -172
474 -192 642 -45 l91 81 34 -52 c111 -170 223 -88 307 225 26 96 43 104 87 40
l31 -45 32 44 c116 160 194 116 149 -85 -28 -125 -12 -230 43 -279 47 -43 77
-25 37 23 -21 24 -27 84 -23 228 8 267 -88 357 -205 194 -29 -42 -33 -42 -52
-10 -48 85 -142 -5 -177 -170 -39 -180 -126 -227 -199 -108 -49 79 -53 142
-14 216 25 48 24 54 -9 63 -21 5 -41 -3 -48 -20 -9 -24 -20 -22 -64 13 -92 72
-202 47 -257 -59 -59 -114 -25 -259 72 -311 47 -25 47 -26 -26 -39 -113 -21
-323 48 -439 145 -31 26 -29 35 22 112 99 150 184 313 164 313 -11 0 -37 -25
-58 -55z m520 -207 c40 -82 19 -184 -46 -218 -135 -73 -248 94 -159 236 58 94
154 86 205 -18z m-802 -91 c50 -45 46 -80 -13 -119 -89 -58 -144 11 -89 113
25 48 54 49 102 6z"/>
<path d="M2040 1320 c0 -33 10 -41 45 -36 25 3 45 20 45 36 0 17 -20 33 -45
36 -35 5 -45 -3 -45 -36z"/>
</g>
</svg>
