<svg width="292" height="180" viewBox="0 0 292 180" fill="none" xmlns="http://www.w3.org/2000/svg">
<path d="M35.9998 2.93334C23.8665 8.06667 3.19978 51.1333 5.13312 67.4C6.86645 81.8667 17.1998 93.9333 29.5331 95.7333C33.5331 96.3333 35.2665 97.2 34.8665 98.3333C34.5331 99.2667 32.9331 104.4 31.3331 109.8C25.7998 128.133 9.93312 164.333 2.99978 174.067C-0.666883 179.333 1.26645 180.333 5.99978 175.6C12.8665 168.6 29.1331 132.333 36.8665 106.667L39.9998 96.3333H45.3998C51.7998 96.3333 69.6665 91.8667 71.7331 89.8C75.9331 85.6 75.9998 89.1333 71.9331 98.6667C63.0665 119.133 60.1998 140 65.1998 147.6C67.7331 151.467 70.7998 152.267 69.3331 148.667C63.3998 134.333 70.2665 105.533 85.1998 81.8667C89.8665 74.5333 89.5331 72.6667 84.4665 76.9333C77.0665 83.2 64.5998 88.6 52.9331 90.6C39.4665 92.9333 40.3998 93.8 43.4665 81.6667C56.9998 27.6667 53.9998 -4.59999 35.9998 2.93334ZM43.6665 7.33334C50.1998 12.3333 46.9331 55.9333 37.7331 87.3333C34.4665 98.2667 14.7331 87.6 10.1998 72.4667C4.26645 52.6 32.0665 -1.53333 43.6665 7.33334Z" fill="black" stroke="black" stroke-width="2" stroke-miterlimit="1.41421"/>
<path d="M182.778 15.1951C172.111 21.6617 162.044 50.5284 158.911 83.6617C157.911 93.7951 157.844 93.8617 143.111 99.3284L135.844 102.128L134.911 109.062C131.778 132.795 111.511 149.195 99.3777 137.795L94.911 133.595L101.044 131.795C112.111 128.595 120.378 117.595 116.178 111.662C109.778 102.462 97.111 108.795 92.711 123.395C91.7777 126.595 90.311 128.662 89.0443 128.728C87.4443 128.795 87.6443 129.328 89.911 130.862C91.5777 132.062 92.911 133.728 92.911 134.595C92.911 137.062 99.8443 143.128 104.578 144.728C116.444 148.862 135.311 130.662 137.711 112.795L138.644 105.728L147.444 101.595C152.311 99.3284 156.644 97.2617 157.044 96.9951C157.511 96.7284 158.178 106.928 158.578 119.595C159.711 157.528 162.778 158.928 163.244 121.662L163.644 92.6617L170.378 85.6617C188.178 67.0617 202.511 34.1951 198.311 21.5284C195.511 13.0617 189.978 10.7951 182.778 15.1951ZM192.111 18.7284C200.511 27.0617 187.978 60.9284 168.444 82.6617L163.711 87.9951L163.644 82.0617C163.311 51.1951 182.311 8.92839 192.111 18.7284ZM112.644 111.595C116.711 115.662 112.244 122.795 102.844 127.395C95.7777 130.795 94.9777 130.395 96.111 124.128C97.8443 115.128 108.244 107.195 112.644 111.595Z" fill="black" stroke="black" stroke-width="2" stroke-miterlimit="1.41421"/>
<path d="M201.251 98.6667C199.851 100.667 197.118 105 195.185 108.333C188.318 119.933 188.185 120.067 183.718 115.8C176.385 108.8 167.918 117.4 172.118 127.533C174.718 133.8 178.318 133.533 185.918 126.6L188.918 123.867L191.918 126.6C204.451 138.067 223.518 139.4 234.718 129.6L240.785 124.2L243.051 127.667C250.451 139 257.918 133.533 263.518 112.667C265.251 106.267 266.385 105.733 269.318 110L271.385 113L273.518 110.067C281.251 99.4 286.451 102.333 283.451 115.733C281.585 124.067 282.651 131.067 286.318 134.333C289.451 137.2 291.451 136 288.785 132.8C287.385 131.2 286.985 127.2 287.251 117.6C287.785 99.8 281.385 93.8 273.585 104.667C271.651 107.467 271.385 107.467 270.118 105.333C266.918 99.6667 260.651 105.667 258.318 116.667C255.718 128.667 249.918 131.8 245.051 123.867C241.785 118.6 241.518 114.4 244.118 109.467C245.785 106.267 245.718 105.867 243.518 105.267C242.118 104.933 240.785 105.467 240.318 106.6C239.718 108.2 238.985 108.067 236.051 105.733C229.918 100.933 222.585 102.6 218.918 109.667C214.985 117.267 217.251 126.933 223.718 130.4C226.851 132.067 226.851 132.133 221.985 133C214.451 134.4 200.451 129.8 192.718 123.333C190.651 121.6 190.785 121 194.185 115.867C200.785 105.867 206.451 95 205.118 95C204.385 95 202.651 96.6667 201.251 98.6667ZM235.918 112.467C238.585 117.933 237.185 124.733 232.851 127C223.851 131.867 216.318 120.733 222.251 111.267C226.118 105 232.518 105.533 235.918 112.467ZM182.451 118.533C185.785 121.533 185.518 123.867 181.585 126.467C175.651 130.333 171.985 125.733 175.651 118.933C177.318 115.733 179.251 115.667 182.451 118.533Z" fill="black" stroke="black" stroke-width="2" stroke-miterlimit="1.41421"/>
<path d="M81 147C81 149.2 81.6667 149.733 84 149.4C85.6667 149.2 87 148.067 87 147C87 145.867 85.6667 144.8 84 144.6C81.6667 144.267 81 144.8 81 147Z" fill="black" stroke="black" stroke-width="2" stroke-miterlimit="1.41421"/>
</svg>
