<svg width="90" height="192" viewBox="0 0 90 192" fill="none" xmlns="http://www.w3.org/2000/svg">
<path d="M87.6835 123.86C84.6765 117.841 83.0845 111.214 83.0265 104.486L81.5215 63.7077C81.4945 62.9877 81.6835 62.2767 82.0635 61.6637C82.4495 61.0407 82.6505 60.3217 82.6445 59.5887L82.2915 18.1837C82.2475 13.0737 79.1995 8.46967 74.5125 6.43367L73.8485 6.14566C64.3175 2.00666 54.0245 -0.0853347 43.6345 0.00266532H43.5905H43.5465C33.1565 0.0906653 22.9005 2.35866 13.4415 6.65966L12.7825 6.95866C8.13054 9.07366 5.16154 13.7297 5.20454 18.8397L5.55753 60.2447C5.56353 60.9777 5.77754 61.6927 6.17354 62.3087C6.56354 62.9147 6.76353 63.6227 6.74953 64.3427L5.93954 105.14C5.99654 111.868 4.51753 118.521 1.61353 124.59C0.297533 127.34 -0.229463 130.402 0.0915374 133.434L5.50754 184.678C5.82554 187.685 8.37454 189.959 11.3975 189.933L45.2055 189.645L79.0135 189.357C82.0365 189.331 84.5465 187.014 84.8135 184.002L89.3555 132.673C89.6245 129.64 89.0455 126.588 87.6835 123.86Z" fill="#E41E35"/>
<path d="M4.7085 177.112L5.5085 184.682C5.8265 187.689 8.3755 189.963 11.3985 189.937L79.0145 189.361C82.0375 189.335 84.5475 187.018 84.8145 184.006L85.4855 176.424L4.7085 177.112Z" fill="#E73D44"/>
<path d="M84.6227 168.472C83.2167 171.944 79.4707 174.648 79.0457 178.361C78.6227 182.052 77.8807 185.701 77.3467 189.374L79.0147 189.36C82.0377 189.334 84.5477 187.017 84.8147 184.005L86.6847 162.87C86.0477 164.836 85.3297 166.725 84.6227 168.472Z" fill="#C91D2E"/>
<path d="M87.6836 123.86C84.6766 117.841 83.0846 111.214 83.0266 104.486L81.5216 63.7077C81.4946 62.9877 81.6836 62.2767 82.0636 61.6637C80.5146 63.5937 79.1626 65.7447 79.1776 67.5767C79.8256 77.1307 80.2776 115.036 81.1596 117.898C83.5036 125.508 88.7846 128.931 88.4056 143.418L89.3566 132.676C89.6246 129.64 89.0456 126.588 87.6836 123.86Z" fill="#C91D2E"/>
<path d="M78.8375 19.8687C78.7905 14.3197 76.4455 10.9877 72.0575 9.08166L71.3955 8.79466C69.0895 7.79366 66.7385 6.91466 64.3525 6.15466L64.4395 16.4247L78.8375 19.8687Z" fill="#FADE4D"/>
<path d="M69.6177 120.666C69.6177 120.666 73.3777 134.91 74.5027 139.062C75.6277 143.214 76.1947 128.346 76.5527 123.785C76.9107 119.224 76.3407 98.9147 76.3407 98.9147L69.6177 120.666Z" fill="#C91D2E"/>
<path d="M75.4515 65.7546L68.3825 85.0786C67.5575 87.3336 67.1455 89.7186 67.1655 92.1196L67.2525 102.362C67.3075 108.875 68.1875 115.354 69.8715 121.646L71.4175 127.424C71.5825 128.039 72.4595 128.027 72.6075 127.408L74.1105 121.1C75.6615 114.591 76.4165 107.918 76.3595 101.227L76.0585 65.8596C76.0555 65.5116 75.5715 65.4276 75.4515 65.7546Z" fill="#3C3C3B"/>
<path d="M77.6355 65.5326L80.2835 65.5096C80.6655 65.5066 81.0455 65.5676 81.4075 65.6916L86.6365 67.4846C87.2475 67.6946 87.6605 68.2666 87.6655 68.9126L87.6695 69.3366L81.3575 69.3906C81.2315 69.3916 81.1295 69.2906 81.1285 69.1656C81.1245 68.7126 80.8655 68.3006 80.4595 68.0996L77.0545 66.4176L77.0525 66.1256C77.0485 65.8016 77.3105 65.5356 77.6355 65.5326Z" fill="#E73D44"/>
<path d="M77.2744 148.913L74.9395 161.749L82.7664 161.682L84.8775 145.116L81.7525 145.143C79.5485 145.162 77.6684 146.745 77.2744 148.913Z" fill="#C91D2E"/>
<path d="M74.2507 190.888L63.6487 190.978C62.8277 190.985 62.1567 190.325 62.1497 189.504L75.7237 189.388C75.7307 190.21 75.0707 190.881 74.2507 190.888Z" fill="#C91D2E"/>
<path d="M43.6346 0.00371905H43.5907H43.5466C37.1236 0.058719 30.7516 0.94872 24.5876 2.63472L24.8837 37.3697C24.9137 40.9007 27.8007 43.7377 31.3307 43.7077L43.9617 43.5997L56.5927 43.4917C60.1237 43.4617 62.9606 40.5747 62.9306 37.0447L62.6346 2.30972C56.4436 0.730719 50.0576 -0.050281 43.6346 0.00371905Z" fill="#C91D2E"/>
<path d="M5.43456 169.147C6.89956 172.595 10.6906 175.234 11.1796 178.94C11.6656 182.623 12.4686 186.259 13.0666 189.923L11.3986 189.937C8.37557 189.963 5.82657 187.689 5.50857 184.682L3.27856 163.581C3.94756 165.535 4.69756 167.412 5.43456 169.147Z" fill="#C91D2E"/>
<path d="M1.61451 124.593C4.51851 118.523 5.99751 111.871 5.94051 105.142L6.75051 64.3447C6.76451 63.6247 6.56451 62.9167 6.17451 62.3107C7.75651 64.2137 9.14551 66.3427 9.16051 68.1737C8.67551 77.7367 8.86851 115.645 8.03651 118.521C5.82251 126.17 0.60051 129.682 1.22551 144.161L0.092514 133.437C-0.228486 130.405 0.29851 127.344 1.61451 124.593Z" fill="#C91D2E"/>
<path d="M8.68748 20.4667C8.64048 14.9177 10.9285 11.5457 15.2825 9.56572L15.9395 9.26672C18.2275 8.22572 20.5635 7.30771 22.9365 6.50671L23.0245 16.7767L8.68748 20.4667Z" fill="#FADE4D"/>
<path d="M69.8246 55.4787L62.6426 54.4517C50.3056 52.6887 37.7746 52.7957 25.4696 54.7687L18.3056 55.9177C15.1436 56.4247 13.2516 59.7137 14.4016 62.7027L22.0556 82.5837C22.5696 83.9187 23.8576 84.7957 25.2886 84.7837L44.3116 84.6217L63.3346 84.4597C64.7656 84.4477 66.0386 83.5497 66.5296 82.2057L73.8436 62.1967C74.9436 59.1887 72.9946 55.9317 69.8246 55.4787Z" fill="#3C3C3B"/>
<path d="M19.6235 121.092C19.6235 121.092 16.1075 135.398 15.0525 139.569C13.9985 143.74 13.1775 128.883 12.7425 124.329C12.3075 119.775 12.5305 99.4586 12.5305 99.4586L19.6235 121.092Z" fill="#C91D2E"/>
<path d="M71.3796 146.673L67.5926 134.626C66.2886 130.478 62.4276 127.67 58.0806 127.707L44.6796 127.821L31.2786 127.935C26.9316 127.972 23.1186 130.846 21.8856 135.015L18.3046 147.125C16.3566 153.713 17.6546 160.834 21.8016 166.31C25.3956 171.057 30.7886 174.111 36.7076 174.753L45.0876 175.662L53.4506 174.61C59.3586 173.867 64.6976 170.721 68.2106 165.914C72.2636 160.369 73.4396 153.226 71.3796 146.673Z" fill="#3C3C3B"/>
<path d="M70.8965 145.137L67.5925 134.626C66.2885 130.478 62.4275 127.67 58.0805 127.707L31.2785 127.935C26.9315 127.972 23.1185 130.846 21.8855 135.015L18.7605 145.581L70.8965 145.137Z" fill="#121212"/>
<path d="M12.8545 66.2887L20.2515 85.4897C21.1145 87.7307 21.5675 90.1077 21.5875 92.5087L21.6745 102.75C21.7295 109.263 20.9605 115.756 19.3845 122.076L17.9375 127.88C17.7835 128.498 16.9055 128.501 16.7475 127.884L15.1375 121.602C13.4755 115.121 12.6065 108.461 12.5495 101.771L12.2485 66.4037C12.2465 66.0557 12.7285 65.9637 12.8545 66.2887Z" fill="#3C3C3B"/>
<path d="M10.6666 66.1037L8.01861 66.1267C7.63661 66.1297 7.25761 66.1977 6.89861 66.3277L1.70061 68.2097C1.09361 68.4297 0.690603 69.0087 0.695603 69.6547L0.699608 70.0787L7.0116 70.0247C7.1366 70.0237 7.2376 69.9207 7.2366 69.7957C7.2326 69.3427 7.4846 68.9257 7.8866 68.7187L11.2626 66.9787L11.2606 66.6867C11.2586 66.3627 10.9926 66.1007 10.6666 66.1037Z" fill="#E73D44"/>
<path d="M12.4485 149.466L15.0025 162.261L7.17547 162.328L4.78247 145.8L7.90747 145.773C10.1105 145.754 12.0175 147.304 12.4485 149.466Z" fill="#C91D2E"/>
<path d="M16.1875 191.383L26.7895 191.293C27.6105 191.286 28.2705 190.615 28.2635 189.794L14.6895 189.91C14.6955 190.73 15.3665 191.39 16.1875 191.383Z" fill="#C91D2E"/>
<path d="M25.2707 59.5776L22.0247 66.7496L23.6177 66.7366L25.2707 59.5776Z" fill="#333332"/>
<path d="M35.6746 59.4886L39.0426 66.6047L37.4496 66.6187L35.6746 59.4886Z" fill="#333332"/>
<path d="M21.5785 81.3467L66.9845 80.9597L72.3355 66.3217L15.9795 66.8017L21.5785 81.3467Z" fill="#121212"/>
<path d="M35.6745 59.4886L30.4725 59.5327L25.2705 59.5777L23.0725 69.0947L30.5535 69.0317L38.0345 68.9677L35.6745 59.4886Z" fill="#3C3C3B"/>
<path d="M36.7516 73.9207L24.4396 74.0257C23.7076 74.0317 23.1096 73.4437 23.1036 72.7117L23.1006 72.3527C23.0946 71.6207 23.6826 71.0227 24.4146 71.0167L36.7266 70.9117C37.4586 70.9057 38.0566 71.4937 38.0626 72.2257L38.0656 72.5847C38.0716 73.3167 37.4836 73.9147 36.7516 73.9207Z" fill="#3C3C3B"/>
<path d="M68.1485 122.107C66.4275 115.675 65.5265 109.037 65.4695 102.378L65.3825 92.1356C65.3625 89.7606 65.7255 87.4216 66.4635 85.1716C65.5845 85.8406 64.4965 86.2326 63.3505 86.2416L25.3035 86.5656C24.1565 86.5756 23.0625 86.2016 22.1725 85.5486C22.9485 87.7846 23.3515 90.1176 23.3715 92.4926L23.4585 102.735C23.5155 109.393 22.7275 116.045 21.1155 122.506L19.6685 128.311C19.6555 128.364 19.6315 128.41 19.6145 128.461L20.2185 127.999C23.5965 125.417 27.7225 124.001 31.9745 123.965L58.4835 123.739C62.2565 123.707 65.9595 124.763 69.1485 126.781L69.6715 127.112L68.1485 122.107Z" fill="#E73D44"/>
</svg>
