<svg width="94" height="180" viewBox="0 0 94 180" fill="none" xmlns="http://www.w3.org/2000/svg">
<path d="M8.27985 28.79L7.95386 32.45V154.172C7.95386 165.376 15.2408 175.278 25.9388 178.61C28.4028 179.378 30.9698 179.768 33.5508 179.768H46.9189V0H39.7528C23.3888 0 9.73285 12.492 8.27985 28.79Z" fill="#FBC978"/>
<path d="M13.0359 14.7429C10.4319 18.8629 8.73887 23.6319 8.27887 28.7899L7.95288 32.4499V154.172C7.95288 159.832 9.81589 165.156 13.0359 169.472V14.7429Z" fill="#F7AC1F"/>
<path d="M12.9649 112.077C11.7149 113.589 9.91488 114.983 7.95288 115.543V154.172C7.95288 159.832 9.81589 165.156 13.0359 169.472V111.975C13.0109 112.008 12.9909 112.045 12.9649 112.077Z" fill="#FABF5B"/>
<path d="M12.8969 57.029C12.8969 52.146 14.6449 33.458 16.6829 26.45C19.0839 18.195 21.8239 9.77302 27.0489 2.66602C16.7949 7.17402 9.33287 16.981 8.27887 28.791L7.95288 32.451V54.619C10.2589 55.16 12.5419 56.268 12.8969 57.029Z" fill="#FABF5B"/>
<path d="M36.1599 140.54C30.8039 140.429 25.5409 139.533 20.2729 138.644C20.9279 147.742 22.8739 162.675 24.6689 169.495C25.0099 170.79 26.4029 177.641 26.9089 178.873C29.0749 179.455 31.305 179.768 33.55 179.768H46.9179V140.28C43.3329 140.449 39.7479 140.615 36.1599 140.54Z" fill="#FCD18D"/>
<path d="M25.9379 169.929C15.2399 166.597 7.95288 156.695 7.95288 145.491V154.172C7.95288 165.376 15.2399 175.278 25.9379 178.61C28.4019 179.378 30.9689 179.768 33.5499 179.768H46.9179V171.087H33.5499C30.9689 171.087 28.4019 170.697 25.9379 169.929Z" fill="#F6A306"/>
<path d="M24.2799 171.644C19.1929 169.846 14.8749 166.709 11.7019 162.676C14.2209 169.188 19.5859 174.358 26.5829 176.538C26.6329 176.554 26.6839 176.564 26.7339 176.579C26.7339 176.579 25.0139 171.931 24.2799 171.644Z" fill="#D74931"/>
<path d="M46.9169 176.047V173.257H34.6719C36.3469 176.579 46.9169 176.047 46.9169 176.047Z" fill="#D74931"/>
<path d="M24.979 3.68396C17.892 7.43996 12.375 13.812 9.78198 21.59C9.89598 21.542 12.832 16.182 16.574 11.815C20.38 7.37297 24.993 3.91896 24.979 3.68396Z" fill="#F5F5F5"/>
<path d="M9.3099 65.912C9.3099 65.047 8.5229 64.4 7.6719 64.554C5.0179 65.034 2.64091 66.566 1.11691 68.852L0.563897 69.682C-0.0211026 70.56 -0.160096 71.661 0.189904 72.656C0.375904 73.187 0.983916 73.436 1.48892 73.189L9.31091 69.37V65.912H9.3099Z" fill="#FBC56D"/>
<path d="M1.48688 73.189L9.30887 69.37V68.213L0.191895 72.665C0.381895 73.188 0.984877 73.434 1.48688 73.189Z" fill="#FFE3BC"/>
<path d="M46.917 148.42H35.817C23.158 148.42 12.896 138.158 12.896 125.499V57.0291L16.634 81.0221C22.203 78.4751 28.239 77.1081 34.362 77.0081L46.917 76.8031V148.42Z" fill="#3C3C3B"/>
<path d="M46.8369 126.059C42.9369 126.196 39.3369 125.819 35.4409 126.462C32.4769 126.952 28.3699 127.684 25.3889 128.068C20.7329 128.667 13.7409 129.22 12.9329 126.762C13.5889 138.833 23.5828 148.42 35.8178 148.42H46.9178V126.048C46.8898 126.051 46.8649 126.058 46.8369 126.059Z" fill="#333332"/>
<path d="M43.557 43.043C38.877 43.043 34.204 43.393 29.576 44.09L27.43 44.413C20.993 45.383 16.011 50.559 15.29 57.029L18.009 72.912C18.15 73.734 18.603 74.47 19.275 74.966C20.075 75.556 21.099 75.731 22.06 75.476C26.393 74.326 30.849 73.686 35.338 73.574L46.917 73.285V43.043H43.557Z" fill="#333332"/>
<path d="M46.917 67.82V43.043H43.557C38.877 43.043 34.204 43.393 29.576 44.09L27.43 44.413C20.993 45.383 16.011 50.559 15.29 57.029L17.137 67.82H46.917Z" fill="#3C3C3B"/>
<path d="M21.156 67.8199C21.156 67.8199 21.772 57.4609 29.376 57.4609H32.162C32.162 57.4609 39.964 57.4209 39.964 67.8199H21.156Z" fill="#333332"/>
<path d="M38.457 68.9081C33.441 70.4011 28.1 70.4011 23.084 68.9081V65.0171C23.084 60.7721 26.525 57.3311 30.77 57.3311C35.015 57.3311 38.456 60.7721 38.456 65.0171V68.9081H38.457Z" fill="#3C3C3B"/>
<path d="M38.4759 71.241H37.4958L32.4778 66.223L31.4979 67.203L35.5359 71.241H26.0069L30.0449 67.203L29.0648 66.223L24.0468 71.241H23.0669C22.6249 71.241 22.2668 71.599 22.2668 72.041C22.2668 72.483 22.6249 72.841 23.0669 72.841H38.4778C38.9198 72.841 39.2779 72.483 39.2779 72.041C39.2779 71.599 38.9179 71.241 38.4759 71.241Z" fill="#3C3C3B"/>
<path d="M23.397 84.459H22.296C20.682 84.459 19.337 85.694 19.199 87.302L18.966 90.025C18.819 91.748 18.888 93.483 19.171 95.189L20.488 103.108H23.396V84.459H23.397Z" fill="#868686"/>
<path d="M38.438 84.459H39.539C41.153 84.459 42.498 85.694 42.636 87.302L42.869 90.025C43.016 91.748 42.947 93.483 42.663 95.189L41.346 103.108H38.438V84.459Z" fill="#868686"/>
<path d="M19.0569 102.105V113.289C19.0569 115.037 19.9039 116.677 21.3299 117.688L22.7009 118.66C23.7629 119.414 25.0339 119.819 26.3359 119.819H30.9179V115.207L19.0569 102.105Z" fill="#868686"/>
<path d="M23.3968 103.108L20.8618 101.453C20.0538 100.925 18.9908 101.551 19.0598 102.514L19.5688 109.617C19.6638 110.949 20.3748 112.161 21.4898 112.895L23.3088 114.092C24.4128 114.819 25.7048 115.206 27.0268 115.206H30.9178V103.107H23.3968V103.108Z" fill="#6F6F6E"/>
<path d="M42.779 102.105V113.289C42.779 115.037 41.932 116.677 40.506 117.688L39.135 118.66C38.073 119.414 36.802 119.819 35.5 119.819H30.917V115.207L42.779 102.105Z" fill="#868686"/>
<path d="M38.438 103.108L40.973 101.453C41.781 100.925 42.844 101.551 42.775 102.514L42.266 109.617C42.171 110.949 41.46 112.161 40.345 112.895L38.526 114.092C37.422 114.819 36.13 115.206 34.808 115.206H30.917V103.107H38.438V103.108Z" fill="#6F6F6E"/>
<path d="M38.438 84.459H23.397V103.108H38.438V84.459Z" fill="#6F6F6E"/>
<path d="M34.042 112.784H27.793C25.762 112.784 24.07 111.227 23.902 109.202L23.397 103.107H38.438L37.933 109.202C37.765 111.227 36.073 112.784 34.042 112.784Z" fill="#575756"/>
<path d="M24.588 116.67C24.496 116.468 24.43 116.253 24.375 116.035C24.429 116.254 24.497 116.468 24.588 116.67Z" fill="#999999"/>
<path d="M24.337 115.914C24.281 115.656 24.25 115.389 24.25 115.113C24.25 115.388 24.282 115.656 24.337 115.914Z" fill="#999999"/>
<path d="M27.809 110.617H25.755C24.924 110.617 24.25 111.291 24.25 112.122V115.113C24.25 115.388 24.281 115.656 24.337 115.914C24.346 115.956 24.364 115.993 24.374 116.035C24.43 116.254 24.496 116.469 24.587 116.67C24.595 116.687 24.605 116.702 24.613 116.719C24.83 117.179 25.133 117.59 25.505 117.93C26.721 115.805 27.811 113.12 27.809 110.617Z" fill="#808080"/>
<path d="M37.585 115.114C37.585 115.389 37.554 115.657 37.498 115.915C37.553 115.656 37.585 115.388 37.585 115.114Z" fill="#999999"/>
<path d="M37.461 116.035C37.405 116.254 37.34 116.469 37.248 116.67C37.338 116.468 37.406 116.254 37.461 116.035Z" fill="#999999"/>
<path d="M34.026 110.617H30.918H27.81C27.812 113.119 26.721 115.805 25.507 117.929C25.135 117.59 24.832 117.178 24.615 116.718C25.223 118.025 26.538 118.936 28.075 118.936H30.919H33.763C35.299 118.936 36.615 118.025 37.223 116.718C37.006 117.178 36.703 117.589 36.331 117.929C35.115 115.805 34.025 113.12 34.026 110.617Z" fill="#999999"/>
<path d="M37.4609 116.035C37.4709 115.994 37.4889 115.956 37.4979 115.914C37.5539 115.656 37.5849 115.389 37.5849 115.113V112.122C37.5849 111.291 36.9109 110.617 36.0799 110.617H34.0259C34.0239 113.119 35.1149 115.805 36.3289 117.929C36.7009 117.59 37.0039 117.178 37.2209 116.718C37.2289 116.701 37.2399 116.686 37.2469 116.669C37.3399 116.469 37.4049 116.254 37.4609 116.035Z" fill="#808080"/>
<path d="M85.555 28.79L85.881 32.45V154.172C85.881 165.376 78.594 175.278 67.897 178.61C65.432 179.378 62.866 179.768 60.285 179.768H46.917V0H54.083C70.446 0 84.102 12.492 85.555 28.79Z" fill="#FBC978"/>
<path d="M80.7988 14.7429C83.4028 18.8629 85.0958 23.6319 85.5558 28.7899L85.8818 32.4499V154.172C85.8818 159.832 84.0188 165.156 80.7988 169.472V14.7429Z" fill="#F7AC1F"/>
<path d="M80.8698 112.077C82.1198 113.589 83.9198 114.983 85.8818 115.543V154.172C85.8818 159.832 84.0188 165.156 80.7988 169.472V111.975C80.8238 112.008 80.8438 112.045 80.8698 112.077Z" fill="#FABF5B"/>
<path d="M80.9379 57.029C80.9379 52.146 79.1899 33.458 77.1519 26.45C74.7509 18.195 72.0109 9.77302 66.7859 2.66602C77.0399 7.17402 84.5019 16.981 85.5549 28.791L85.8809 32.451V54.619C83.5759 55.16 81.2929 56.268 80.9379 57.029Z" fill="#FABF5B"/>
<path d="M57.675 140.54C63.031 140.429 68.294 139.533 73.562 138.644C72.907 147.742 70.961 162.675 69.166 169.495C68.825 170.79 67.431 177.641 66.926 178.873C64.76 179.455 62.53 179.768 60.285 179.768H46.917V140.28C50.502 140.449 54.087 140.615 57.675 140.54Z" fill="#FCD18D"/>
<path d="M67.897 169.929C78.595 166.597 85.882 156.695 85.882 145.491V154.172C85.882 165.376 78.595 175.278 67.898 178.61C65.434 179.378 62.867 179.768 60.286 179.768H46.918V171.087H60.286C62.866 171.087 65.433 170.697 67.897 169.929Z" fill="#F6A306"/>
<path d="M69.5548 171.644C74.6418 169.846 78.9588 166.709 82.1328 162.676C79.6148 169.188 74.2488 174.358 67.2518 176.538C67.2018 176.554 67.1508 176.564 67.1008 176.579C67.1008 176.579 68.8208 171.931 69.5548 171.644Z" fill="#D74931"/>
<path d="M46.917 176.047V173.257H59.162C57.488 176.579 46.917 176.047 46.917 176.047Z" fill="#D74931"/>
<path d="M68.856 3.68396C75.943 7.43996 81.46 13.812 84.053 21.59C83.939 21.542 81.003 16.182 77.261 11.815C73.454 7.37297 68.842 3.91896 68.856 3.68396Z" fill="#F5F5F5"/>
<path d="M84.5249 65.912C84.5249 65.047 85.3119 64.4 86.1629 64.554C88.8169 65.034 91.1939 66.566 92.7179 68.852L93.2709 69.682C93.8559 70.56 93.9949 71.661 93.6449 72.656C93.4589 73.187 92.8509 73.436 92.3459 73.189L84.5239 69.37L84.5249 65.912Z" fill="#FBC56D"/>
<path d="M92.3469 73.189L84.5249 69.37V68.213L93.6419 72.665C93.4529 73.188 92.8499 73.434 92.3469 73.189Z" fill="#FFE3BC"/>
<path d="M46.917 148.42H58.017C70.676 148.42 80.938 138.158 80.938 125.499V57.0291L77.2 81.0221C71.631 78.4751 65.595 77.1081 59.472 77.0081L46.917 76.8031V148.42Z" fill="#3C3C3B"/>
<path d="M46.998 126.059C50.898 126.196 54.498 125.819 58.394 126.462C61.358 126.952 65.465 127.684 68.446 128.068C73.102 128.667 80.094 129.22 80.902 126.762C80.246 138.833 70.252 148.42 58.017 148.42H46.917V126.048C46.945 126.051 46.969 126.058 46.998 126.059Z" fill="#333332"/>
<path d="M50.277 43.043C54.957 43.043 59.63 43.393 64.258 44.09L66.404 44.413C72.841 45.383 77.823 50.559 78.544 57.029L75.825 72.912C75.684 73.734 75.231 74.47 74.559 74.966C73.759 75.556 72.735 75.731 71.774 75.476C67.441 74.326 62.985 73.686 58.496 73.574L46.916 73.285V43.043H50.277Z" fill="#333332"/>
<path d="M46.917 67.82V43.043H50.277C54.957 43.043 59.63 43.393 64.258 44.09L66.404 44.413C72.841 45.383 77.823 50.559 78.544 57.029L76.697 67.82H46.917Z" fill="#3C3C3B"/>
<path d="M70.438 84.459H71.539C73.153 84.459 74.498 85.694 74.636 87.302L74.869 90.025C75.016 91.748 74.947 93.483 74.663 95.189L73.346 103.108H70.438V84.459Z" fill="#868686"/>
<path d="M55.3969 84.459H54.296C52.682 84.459 51.3369 85.694 51.1989 87.302L50.9659 90.025C50.8189 91.748 50.8879 93.483 51.1719 95.189L52.489 103.108H55.3969V84.459Z" fill="#868686"/>
<path d="M74.778 102.105V113.289C74.778 115.037 73.931 116.677 72.505 117.688L71.134 118.66C70.072 119.414 68.801 119.819 67.499 119.819H62.916V115.207L74.778 102.105Z" fill="#868686"/>
<path d="M70.438 103.108L72.973 101.453C73.781 100.925 74.844 101.551 74.775 102.514L74.266 109.617C74.17 110.949 73.46 112.161 72.345 112.895L70.526 114.092C69.422 114.819 68.13 115.206 66.808 115.206H62.917V103.107H70.438V103.108Z" fill="#6F6F6E"/>
<path d="M51.0559 102.105V113.289C51.0559 115.037 51.9029 116.677 53.3289 117.688L54.6989 118.66C55.7609 119.414 57.0319 119.819 58.3339 119.819H62.9169V115.207L51.0559 102.105Z" fill="#868686"/>
<path d="M55.3969 103.108L52.8619 101.453C52.0539 100.925 50.9899 101.551 51.0589 102.514L51.5679 109.617C51.6639 110.949 52.3739 112.161 53.4889 112.895L55.3079 114.092C56.4119 114.819 57.7039 115.206 59.0259 115.206H62.9169V103.107H55.3969V103.108Z" fill="#6F6F6E"/>
<path d="M55.3965 103.107H70.4375V84.4583H55.3965V103.107Z" fill="#6F6F6E"/>
<path d="M59.793 112.784H66.042C68.073 112.784 69.765 111.227 69.933 109.202L70.438 103.107H55.397L55.902 109.202C56.07 111.227 57.762 112.784 59.793 112.784Z" fill="#575756"/>
<path d="M69.2471 116.67C69.3391 116.468 69.4051 116.253 69.4601 116.035C69.4061 116.254 69.3381 116.468 69.2471 116.67Z" fill="#999999"/>
<path d="M69.498 115.914C69.554 115.656 69.585 115.389 69.585 115.113C69.585 115.388 69.553 115.656 69.498 115.914Z" fill="#999999"/>
<path d="M66.0261 110.617H68.0801C68.9111 110.617 69.5851 111.291 69.5851 112.122V115.113C69.5851 115.388 69.5541 115.656 69.4981 115.914C69.4891 115.956 69.4711 115.993 69.4601 116.035C69.4051 116.254 69.3391 116.469 69.2471 116.67C69.2391 116.687 69.2291 116.702 69.2211 116.719C69.0041 117.179 68.7011 117.59 68.3291 117.93C67.1141 115.805 66.0241 113.12 66.0261 110.617Z" fill="#808080"/>
<path d="M56.25 115.114C56.25 115.389 56.281 115.657 56.337 115.915C56.281 115.656 56.25 115.388 56.25 115.114Z" fill="#999999"/>
<path d="M56.374 116.035C56.43 116.254 56.495 116.469 56.587 116.67C56.497 116.468 56.429 116.254 56.374 116.035Z" fill="#999999"/>
<path d="M59.809 110.617H62.918H66.027C66.025 113.119 67.116 115.805 68.33 117.929C68.702 117.59 69.005 117.178 69.222 116.718C68.614 118.025 67.299 118.936 65.762 118.936H62.918H60.074C58.538 118.936 57.222 118.025 56.614 116.718C56.831 117.178 57.134 117.589 57.506 117.929C58.72 115.805 59.81 113.12 59.809 110.617Z" fill="#999999"/>
<path d="M56.374 116.035C56.364 115.994 56.346 115.956 56.336 115.914C56.28 115.656 56.249 115.389 56.249 115.113V112.122C56.249 111.291 56.923 110.617 57.754 110.617H59.808C59.81 113.119 58.719 115.805 57.505 117.929C57.133 117.59 56.83 117.178 56.613 116.718C56.605 116.701 56.594 116.686 56.587 116.669C56.495 116.469 56.43 116.254 56.374 116.035Z" fill="#808080"/>
</svg>
