<svg width="96" height="204" viewBox="0 0 96 204" fill="none" xmlns="http://www.w3.org/2000/svg">
<path d="M83.882 4.2125L66.751 1.5045C54.067 -0.500501 41.147 -0.501499 28.462 1.5015L11.292 4.2125C8.53202 4.6485 6.5 7.0275 6.5 9.8225V16.4725C6.5 13.6785 8.53202 11.2995 11.292 10.8625L28.462 8.1515C41.147 6.1485 54.067 6.1495 66.751 8.1545L83.882 10.8625C86.642 11.2985 88.674 13.6775 88.674 16.4725V9.8225C88.674 7.0275 86.642 4.6485 83.882 4.2125Z" fill="#119187"/>
<path d="M23.063 8.91548V5.93748C23.063 5.11948 22.4 4.45648 21.582 4.45648H13.18C12.362 4.45648 11.699 5.11948 11.699 5.93748V8.91548H23.063Z" fill="#81C6BE"/>
<path d="M23.063 5.93846C23.063 5.12046 22.4 4.45746 21.582 4.45746H13.18C12.362 4.45746 11.699 5.12046 11.699 5.93846H23.063Z" fill="#97CEC7"/>
<path d="M83.4751 8.91548V5.93748C83.4751 5.11948 82.8121 4.45648 81.9941 4.45648H73.5921C72.7741 4.45648 72.1111 5.11948 72.1111 5.93748V8.91548H83.4751Z" fill="#81C6BE"/>
<path d="M83.4751 5.93846C83.4751 5.12046 82.8121 4.45746 81.9941 4.45746H73.5921C72.7741 4.45746 72.1111 5.12046 72.1111 5.93846H83.4751Z" fill="#97CEC7"/>
<path d="M83.882 8.67051L66.751 5.96251C54.067 3.95751 41.147 3.95651 28.462 5.95951L11.292 8.67051C8.53202 9.10651 6.5 11.4855 6.5 14.2795V201.103C6.5 202.313 7.48 203.293 8.69 203.293H12.322C12.794 203.293 13.253 203.141 13.631 202.859L15.424 201.521C16.302 200.866 17.368 200.514 18.463 200.514H47.567H47.606H76.71C77.805 200.514 78.871 200.867 79.749 201.521L81.542 202.859C81.92 203.141 82.379 203.293 82.851 203.293H86.483C87.692 203.293 88.673 202.313 88.673 201.103V14.2795C88.674 11.4855 86.642 9.10651 83.882 8.67051Z" fill="#0AADA2"/>
<path d="M83.882 8.67051L66.751 5.96251C54.067 3.95751 41.147 3.95651 28.462 5.95951L11.292 8.67151C8.53202 9.10751 6.5 11.4865 6.5 14.2805V194.454V201.104C6.5 202.314 7.48 203.294 8.69 203.294H12.322C12.794 203.294 13.253 203.142 13.631 202.86L15.424 201.523C16.302 200.868 17.368 200.515 18.463 200.515H47.567H47.606H76.71C77.805 200.515 78.871 200.869 79.749 201.523L81.542 202.86C81.92 203.142 82.379 203.294 82.851 203.294H86.483C87.692 203.294 88.673 202.314 88.673 201.104V194.454V14.2795C88.674 11.4855 86.642 9.10651 83.882 8.67051Z" fill="#0AADA2"/>
<path d="M88.674 68.2165V14.2795C88.674 11.4855 86.641 9.10651 83.882 8.67051L66.751 5.96251C54.067 3.95751 41.146 3.95651 28.462 5.95951L11.292 8.67151C8.53202 9.10751 6.5 11.4865 6.5 14.2805V68.2175L18.777 66.5835C37.886 64.0405 57.248 64.0395 76.358 66.5795L88.674 68.2165Z" fill="#68BDB4"/>
<path d="M86.484 197.628H82.852C82.38 197.628 81.921 197.476 81.543 197.194L79.75 195.857C78.872 195.202 77.806 194.849 76.711 194.849H47.607H47.568H18.464C17.369 194.849 16.303 195.203 15.425 195.857L13.632 197.194C13.254 197.476 12.795 197.628 12.323 197.628H8.69098C7.48098 197.628 6.50098 196.648 6.50098 195.438V201.103C6.50098 202.313 7.48098 203.293 8.69098 203.293H12.323C12.795 203.293 13.254 203.141 13.632 202.859L15.425 201.522C16.303 200.867 17.369 200.514 18.464 200.514H47.568H47.607H76.711C77.806 200.514 78.872 200.868 79.75 201.522L81.543 202.859C81.921 203.141 82.38 203.293 82.852 203.293H86.484C87.693 203.293 88.674 202.313 88.674 201.103V195.439C88.674 196.648 87.694 197.628 86.484 197.628Z" fill="#0AADA2"/>
<path d="M79.7231 201.505C79.7321 201.511 79.7411 201.515 79.7501 201.522L81.5431 202.859C81.9211 203.141 82.3801 203.293 82.8521 203.293H86.4841C87.5541 203.293 88.4251 202.519 88.6151 201.505H79.7231Z" fill="#D10F42"/>
<path d="M88.7721 112.145H88.6741V113.611C89.1911 113.736 89.5751 114.198 89.5751 114.752V118.152C89.5751 118.707 89.1901 119.169 88.6741 119.293V120.759H89.2191C90.1701 120.759 90.9421 119.988 90.9421 119.036V114.313C90.9411 113.117 89.9701 112.145 88.7721 112.145Z" fill="#3C3C3B"/>
<path d="M66.2499 75.9245H47.5669V92.2465H67.3859C72.9849 92.2465 78.4539 93.9315 83.0819 97.0825L85.2409 85.9175C85.5389 84.3785 84.9409 82.8025 83.6969 81.8485C78.6929 78.0065 72.5599 75.9245 66.2499 75.9245Z" fill="#3C3C3B"/>
<path d="M81.2689 104.69V100.833C81.2689 99.8015 80.7209 98.8395 79.8219 98.3345C75.6619 95.9955 70.9589 94.7535 66.1589 94.7535H47.5669V104.69H81.2689Z" fill="#3C3C3B"/>
<path d="M85.7519 95.0165L83.3999 104.087C83.0879 105.289 82.9309 106.526 82.9309 107.767V130.38L84.5559 125.622C85.3479 123.302 85.7519 120.868 85.7519 118.417V95.0165Z" fill="#3C3C3B"/>
<path d="M69.0669 145.394H47.5669V106.504H81.6209V137.304C81.6209 138.488 81.1709 139.629 80.3619 140.493C77.4379 143.619 73.3479 145.394 69.0669 145.394Z" fill="#47B5AB"/>
<path d="M74.9699 195.939H47.5669V148.416H82.9309V187.978C82.9309 192.374 79.3669 195.939 74.9699 195.939Z" fill="#47B5AB"/>
<path d="M80.2109 148.415V183.543C80.2109 187.94 76.6469 191.504 72.2499 191.504H47.5669V195.937H74.9699C79.3669 195.937 82.9309 192.373 82.9309 187.976V148.414H80.2109V148.415Z" fill="#119187"/>
<path d="M83.882 8.67052L77.793 7.70752V72.6755C77.793 74.6075 78.8 76.4195 80.477 77.3775C81.593 78.0145 82.669 78.7285 83.698 79.5185C84.236 79.9315 84.644 80.4645 84.92 81.0565L88.674 77.7895V14.2795C88.674 11.4855 86.642 9.10652 83.882 8.67052Z" fill="#47B5AB"/>
<path d="M48.625 71.8435C48.319 71.8435 48.071 71.5955 48.071 71.2895V68.0155C48.071 67.7095 48.319 67.4615 48.625 67.4615C48.931 67.4615 49.179 67.7095 49.179 68.0155V71.2895C49.179 71.5955 48.931 71.8435 48.625 71.8435Z" fill="#6F6F6E"/>
<path d="M50.388 71.8435C50.082 71.8435 49.834 71.5955 49.834 71.2895V68.0155C49.834 67.7095 50.082 67.4615 50.388 67.4615C50.694 67.4615 50.942 67.7095 50.942 68.0155V71.2895C50.943 71.5955 50.694 71.8435 50.388 71.8435Z" fill="#6F6F6E"/>
<path d="M52.1521 71.8435C51.8461 71.8435 51.5981 71.5955 51.5981 71.2895V68.0155C51.5981 67.7095 51.8461 67.4615 52.1521 67.4615C52.4581 67.4615 52.7061 67.7095 52.7061 68.0155V71.2895C52.7061 71.5955 52.4581 71.8435 52.1521 71.8435Z" fill="#6F6F6E"/>
<path d="M53.9151 71.8435C53.6091 71.8435 53.3611 71.5955 53.3611 71.2895V68.0155C53.3611 67.7095 53.6091 67.4615 53.9151 67.4615C54.2211 67.4615 54.4691 67.7095 54.4691 68.0155V71.2895C54.4691 71.5955 54.2211 71.8435 53.9151 71.8435Z" fill="#6F6F6E"/>
<path d="M55.678 71.8435C55.372 71.8435 55.124 71.5955 55.124 71.2895V68.0155C55.124 67.7095 55.372 67.4615 55.678 67.4615C55.984 67.4615 56.232 67.7095 56.232 68.0155V71.2895C56.232 71.5955 55.984 71.8435 55.678 71.8435Z" fill="#6F6F6E"/>
<path d="M57.4409 71.8435C57.1349 71.8435 56.887 71.5955 56.887 71.2895V68.0155C56.887 67.7095 57.1349 67.4615 57.4409 67.4615C57.7469 67.4615 57.9949 67.7095 57.9949 68.0155V71.2895C57.9949 71.5955 57.7469 71.8435 57.4409 71.8435Z" fill="#6F6F6E"/>
<path d="M59.2041 71.8435C58.8981 71.8435 58.6501 71.5955 58.6501 71.2895V68.0155C58.6501 67.7095 58.8981 67.4615 59.2041 67.4615C59.5101 67.4615 59.7581 67.7095 59.7581 68.0155V71.2895C59.7581 71.5955 59.5101 71.8435 59.2041 71.8435Z" fill="#6F6F6E"/>
<path d="M60.9671 71.8435C60.6611 71.8435 60.4131 71.5955 60.4131 71.2895V68.0155C60.4131 67.7095 60.6611 67.4615 60.9671 67.4615C61.2731 67.4615 61.5211 67.7095 61.5211 68.0155V71.2895C61.5221 71.5955 61.2731 71.8435 60.9671 71.8435Z" fill="#6F6F6E"/>
<path d="M62.731 71.8435C62.425 71.8435 62.177 71.5955 62.177 71.2895V68.0155C62.177 67.7095 62.425 67.4615 62.731 67.4615C63.037 67.4615 63.285 67.7095 63.285 68.0155V71.2895C63.285 71.5955 63.037 71.8435 62.731 71.8435Z" fill="#6F6F6E"/>
<path d="M83.2341 62.7525V13.6595L82.9071 13.9855C81.4791 15.4135 80.7201 17.3785 80.8171 19.3965L82.0101 61.5665C82.0311 62.2275 82.5731 62.7525 83.2341 62.7525Z" fill="#68BDB4"/>
<path d="M83.2339 62.7525C83.8949 62.7525 84.4369 62.2275 84.4579 61.5675L85.6509 19.3975C85.7479 17.3795 84.9889 15.4155 83.5609 13.9865L83.2339 13.6605V62.7525Z" fill="#52B7AE"/>
<path d="M95.1731 93.0475H86.5591V91.7835H92.5121C93.4301 91.7835 94.3091 92.1555 94.9481 92.8145L95.1731 93.0475Z" fill="#68BDB4"/>
<path d="M95.1729 93.0475H88.6599V95.7035C88.6599 96.2985 89.1419 96.7805 89.7369 96.7805H93.3759C94.3689 96.7805 95.1739 95.9755 95.1739 94.9825V93.0475H95.1729Z" fill="#119187"/>
<path d="M15.4511 201.505C15.4421 201.511 15.4331 201.515 15.4241 201.522L13.6311 202.859C13.2531 203.141 12.7941 203.293 12.3221 203.293H8.69006C7.62006 203.293 6.74908 202.519 6.55908 201.505H15.4511Z" fill="#D10F42"/>
<path d="M6.40192 112.145H6.49991V113.611C5.98391 113.736 5.59891 114.198 5.59891 114.752V118.152C5.59891 118.707 5.98391 119.169 6.49991 119.293V120.759H5.95593C5.00493 120.759 4.23291 119.988 4.23291 119.036V114.313C4.23291 113.117 5.20392 112.145 6.40192 112.145Z" fill="#3C3C3B"/>
<path d="M28.9239 75.9245H47.6069V92.2465H27.788C22.189 92.2465 16.7199 93.9315 12.0919 97.0825L9.93295 85.9175C9.63495 84.3785 10.233 82.8025 11.477 81.8485C16.481 78.0065 22.6139 75.9245 28.9239 75.9245Z" fill="#3C3C3B"/>
<path d="M83.6981 81.8475C78.6931 78.0065 72.5601 75.9245 66.2501 75.9245H47.6061H47.5671H28.9231C22.6141 75.9245 16.4811 78.0065 11.4761 81.8475C10.2321 82.8025 9.63511 84.3775 9.93211 85.9165L12.0911 97.0815C16.7191 93.9305 22.1881 92.2455 27.7871 92.2455H47.5671H47.6061H67.3861C72.9851 92.2455 78.4541 93.9305 83.0821 97.0815L85.2411 85.9165C85.5391 84.3775 84.9421 82.8025 83.6981 81.8475Z" fill="#3C3C3B"/>
<path d="M13.905 104.69V100.833C13.905 99.8015 14.4531 98.8395 15.3521 98.3345C19.5131 95.9955 24.215 94.7535 29.015 94.7535H47.607V104.69H13.905Z" fill="#3C3C3B"/>
<path d="M9.4209 95.0165L11.7729 104.087C12.0849 105.289 12.2419 106.526 12.2419 107.767V130.38L10.6169 125.622C9.82488 123.302 9.4209 120.868 9.4209 118.417V95.0165Z" fill="#3C3C3B"/>
<path d="M26.107 145.394H47.607V106.504H13.553V137.304C13.553 138.488 14.003 139.629 14.812 140.493C17.736 143.619 21.826 145.394 26.107 145.394Z" fill="#47B5AB"/>
<path d="M20.2029 195.939H47.606V148.416H12.2419V187.978C12.2419 192.374 15.8069 195.939 20.2029 195.939Z" fill="#47B5AB"/>
<path d="M14.9629 148.415V183.543C14.9629 187.94 18.5269 191.504 22.9239 191.504H47.6069V195.937H20.2039C15.8069 195.937 12.2429 192.373 12.2429 187.976V148.414H14.9629V148.415Z" fill="#119187"/>
<path d="M11.292 8.67052L17.381 7.70752V72.6755C17.381 74.6075 16.374 76.4195 14.697 77.3775C13.581 78.0145 12.505 78.7285 11.477 79.5185C10.939 79.9315 10.531 80.4645 10.255 81.0565L6.50098 77.7895V14.2795C6.49998 11.4855 8.53199 9.10652 11.292 8.67052Z" fill="#47B5AB"/>
<path d="M46.5489 71.8435C46.8549 71.8435 47.1029 71.5955 47.1029 71.2895V68.0155C47.1029 67.7095 46.8549 67.4615 46.5489 67.4615C46.2429 67.4615 45.9949 67.7095 45.9949 68.0155V71.2895C45.9939 71.5955 46.2429 71.8435 46.5489 71.8435Z" fill="#6F6F6E"/>
<path d="M44.7849 71.8435C45.0909 71.8435 45.339 71.5955 45.339 71.2895V68.0155C45.339 67.7095 45.0909 67.4615 44.7849 67.4615C44.4789 67.4615 44.231 67.7095 44.231 68.0155V71.2895C44.231 71.5955 44.4789 71.8435 44.7849 71.8435Z" fill="#6F6F6E"/>
<path d="M43.022 71.8435C43.328 71.8435 43.576 71.5955 43.576 71.2895V68.0155C43.576 67.7095 43.328 67.4615 43.022 67.4615C42.716 67.4615 42.468 67.7095 42.468 68.0155V71.2895C42.468 71.5955 42.716 71.8435 43.022 71.8435Z" fill="#6F6F6E"/>
<path d="M41.2588 71.8435C41.5648 71.8435 41.8128 71.5955 41.8128 71.2895V68.0155C41.8128 67.7095 41.5648 67.4615 41.2588 67.4615C40.9528 67.4615 40.7048 67.7095 40.7048 68.0155V71.2895C40.7048 71.5955 40.9528 71.8435 41.2588 71.8435Z" fill="#6F6F6E"/>
<path d="M39.4959 71.8435C39.8019 71.8435 40.0499 71.5955 40.0499 71.2895V68.0155C40.0499 67.7095 39.8019 67.4615 39.4959 67.4615C39.1899 67.4615 38.9419 67.7095 38.9419 68.0155V71.2895C38.9419 71.5955 39.1899 71.8435 39.4959 71.8435Z" fill="#6F6F6E"/>
<path d="M37.7329 71.8435C38.0389 71.8435 38.287 71.5955 38.287 71.2895V68.0155C38.287 67.7095 38.0389 67.4615 37.7329 67.4615C37.4269 67.4615 37.179 67.7095 37.179 68.0155V71.2895C37.179 71.5955 37.4269 71.8435 37.7329 71.8435Z" fill="#6F6F6E"/>
<path d="M35.97 71.8435C36.276 71.8435 36.524 71.5955 36.524 71.2895V68.0155C36.524 67.7095 36.276 67.4615 35.97 67.4615C35.664 67.4615 35.416 67.7095 35.416 68.0155V71.2895C35.415 71.5955 35.664 71.8435 35.97 71.8435Z" fill="#6F6F6E"/>
<path d="M34.2068 71.8435C34.5128 71.8435 34.7608 71.5955 34.7608 71.2895V68.0155C34.7608 67.7095 34.5128 67.4615 34.2068 67.4615C33.9008 67.4615 33.6528 67.7095 33.6528 68.0155V71.2895C33.6518 71.5955 33.8998 71.8435 34.2068 71.8435Z" fill="#6F6F6E"/>
<path d="M32.4429 71.8435C32.7489 71.8435 32.9969 71.5955 32.9969 71.2895V68.0155C32.9969 67.7095 32.7489 67.4615 32.4429 67.4615C32.1369 67.4615 31.8889 67.7095 31.8889 68.0155V71.2895C31.8889 71.5955 32.1369 71.8435 32.4429 71.8435Z" fill="#6F6F6E"/>
<path d="M11.9399 62.7525V13.6595L12.266 13.9855C13.694 15.4135 14.453 17.3785 14.356 19.3965L13.163 61.5665C13.143 62.2275 12.6009 62.7525 11.9399 62.7525Z" fill="#68BDB4"/>
<path d="M11.9399 62.7525C11.2789 62.7525 10.7369 62.2275 10.7159 61.5675L9.52293 19.3975C9.42593 17.3795 10.1849 15.4155 11.6129 13.9865L11.9399 13.6605V62.7525Z" fill="#52B7AE"/>
<path d="M0.000976562 93.0475H8.61499V91.7835H2.66199C1.74399 91.7835 0.864983 92.1555 0.225983 92.8145L0.000976562 93.0475Z" fill="#68BDB4"/>
<path d="M0.00100708 93.0475H6.51401V95.7035C6.51401 96.2985 6.03201 96.7805 5.43701 96.7805H1.798C0.805004 96.7805 0 95.9755 0 94.9825V93.0475H0.00100708Z" fill="#119187"/>
</svg>
