<svg width="93" height="183" viewBox="0 0 93 183" fill="none" xmlns="http://www.w3.org/2000/svg">
<path d="M85.4268 40.2044C85.3548 40.2044 85.2838 40.2014 85.2098 40.1964C83.7118 40.0784 82.5928 38.7684 82.7118 37.2694C84.2798 17.3904 67.9138 7.96439 53.4218 5.93239C51.7858 5.70039 50.0468 5.54739 48.2488 5.47539C46.6088 5.41639 44.9708 5.43439 43.3858 5.53639C41.6388 5.63139 39.9088 5.82139 38.2178 6.10339C23.5678 8.48439 8.46881 17.9204 9.99381 37.2694C10.1118 38.7684 8.99281 40.0784 7.49381 40.1964C6.00281 40.3134 4.68481 39.1954 4.56681 37.6974C3.07181 18.7204 15.9338 4.21039 37.3338 0.733389C39.2108 0.420389 41.1438 0.207388 43.0658 0.103388C44.8088 -0.00761172 46.6328 -0.0286098 48.4578 0.0373902C50.4458 0.11639 52.3688 0.286387 54.1828 0.543387C71.0108 2.90339 90.0038 14.0494 88.1378 37.6974C88.0258 39.1224 86.8328 40.2044 85.4268 40.2044Z" fill="#2D2D2D"/>
<path d="M85.4239 37.4834L83.7729 58.3754H8.93093L7.27993 37.4834C5.71093 17.5704 20.5789 6.21341 37.7699 3.41941C39.5659 3.12041 41.3809 2.9204 43.2129 2.8204C44.9279 2.7114 46.6419 2.6934 48.3569 2.7574C50.1799 2.8304 52.0039 2.9844 53.7999 3.2384C71.4629 5.7134 87.0299 17.1354 85.4239 37.4834Z" fill="#D11207"/>
<path d="M53.7999 182.486C52.0039 182.704 50.1799 182.849 48.3569 182.903C46.6419 182.967 44.9279 182.948 43.2129 182.858C41.3799 182.767 39.5659 182.595 37.7699 182.332C20.7059 179.901 5.90988 170.085 7.11688 152.885L8.93088 126.994H83.7729L85.5869 152.885C86.8209 170.466 71.3359 180.327 53.7999 182.486Z" fill="#D11207"/>
<path d="M7.05287 154.644C6.98487 164.648 12.4959 171.996 20.6289 176.693C17.8429 167.832 14.3769 159.323 7.05287 154.644Z" fill="#232323"/>
<path d="M85.6561 154.644C85.7241 164.648 80.2131 171.996 72.0801 176.693C74.8661 167.832 78.3321 159.323 85.6561 154.644Z" fill="#232323"/>
<path d="M83.7731 50.1114H8.93115V147.457H83.7731V50.1114Z" fill="#D11207"/>
<path d="M75.767 63.4734H16.937L22.398 15.2214C22.543 13.3434 23.741 11.7464 25.673 10.4404C34.427 4.48939 58.259 4.48939 67.022 10.4314C68.954 11.7374 70.161 13.3344 70.306 15.2214L75.767 63.4734Z" fill="#F71616"/>
<path opacity="0.2" d="M75.767 63.4734H16.937L22.398 15.2214C22.543 13.3434 23.741 11.7464 25.673 10.4404C34.427 4.48939 58.259 4.48939 67.022 10.4314C68.954 11.7374 70.161 13.3344 70.306 15.2214L75.767 63.4734Z" fill="url(#paint0_linear_110_1513)"/>
<path d="M14.6279 110.589H78.0759C78.0759 177.115 70.3819 177.115 46.6659 177.115C21.6789 177.116 14.6279 177.116 14.6279 110.589Z" fill="#BF0202"/>
<path opacity="0.5" d="M37.77 172.542V182.332C39.566 182.595 41.381 182.767 43.213 182.858V172.542C41.379 172.412 39.56 172.916 37.77 172.542Z" fill="#FBFBFB"/>
<path opacity="0.5" d="M48.3569 172.52V182.903C50.1799 182.849 52.0039 182.703 53.7999 182.486V172.315C52.0029 172.647 50.1829 172.425 48.3569 172.52Z" fill="#FBFBFB"/>
<path d="M74.1568 137.499C73.7668 145.029 19.0548 145.029 18.6738 137.499C14.4558 115.482 13.5938 91.1604 14.9908 65.2704C14.6918 59.2924 25.0788 55.7454 37.4978 54.6114C44.3108 53.9854 51.7408 54.0944 58.3448 54.9374C69.3758 56.3434 78.1118 59.7814 77.8308 65.2704C79.0558 90.6894 78.0848 114.91 74.1568 137.499Z" fill="#484D51"/>
<path opacity="0.2" d="M61.2747 79.7214H35.4287L37.4967 54.6104C44.3097 53.9844 51.7397 54.0934 58.3437 54.9364L61.2747 79.7214Z" fill="url(#paint1_linear_110_1513)"/>
<path d="M25.0577 80.4884L17.1258 60.5684C15.3158 59.8634 13.3507 62.2824 14.5597 65.1774L22.1677 83.6864L25.0577 80.4884Z" fill="#B90A0C"/>
<path d="M68.1099 80.5604L75.5779 60.5684C77.3879 59.8634 79.3529 62.2824 78.1439 65.1774L70.6649 83.2684L68.1099 80.5604Z" fill="#B90A0C"/>
<path d="M20.9648 144.279V140.225H71.7378V144.279C71.7378 170.462 59.0448 172.899 46.3508 172.899C33.6588 172.899 20.9648 172.315 20.9648 144.279Z" fill="#232323"/>
<path d="M71.7347 87.4964V139.123C71.7347 140.393 70.6647 141.464 69.2217 141.718C69.0037 141.754 68.7857 141.772 68.5597 141.772H24.1447C23.9177 141.772 23.6997 141.754 23.4827 141.718C22.0407 141.464 20.9697 140.393 20.9697 139.123V87.4964C20.9697 85.2644 21.8947 83.3324 23.4917 81.7174C24.6707 80.4924 26.2317 79.4404 28.0547 78.5604C32.5907 76.3834 38.7867 75.2224 45.0917 75.0954C45.9357 75.0774 46.7697 75.0774 47.6137 75.0954C53.9187 75.2224 60.1147 76.3834 64.6507 78.5604C66.4737 79.4404 68.0347 80.4924 69.2137 81.7174C70.8097 83.3324 71.7347 85.2644 71.7347 87.4964Z" fill="#F71616"/>
<path opacity="0.2" d="M69.2219 81.8804V141.772H23.4819V81.8804C23.4819 81.8264 23.4819 81.7714 23.4909 81.7174C24.6699 80.4924 26.2309 79.4404 28.0539 78.5604C32.5899 76.3834 38.7859 75.2224 45.0909 75.0954C45.9349 75.0774 46.7689 75.0774 47.6129 75.0954C53.9179 75.2224 60.1139 76.3834 64.6499 78.5604C66.4729 79.4404 68.0339 80.4924 69.2129 81.7174C69.2219 81.7714 69.2219 81.8264 69.2219 81.8804Z" fill="url(#paint2_linear_110_1513)"/>
<path d="M0.463962 71.6904L11.202 69.0604L10.845 67.6034C10.359 65.6174 8.35397 64.4014 6.36797 64.8874L2.82296 65.7554C0.836956 66.2414 -0.379032 68.2464 0.106968 70.2324L0.463962 71.6904Z" fill="#F71616"/>
<path d="M0.463867 71.6904L11.2019 69.0604L11.3889 69.8254C11.4289 69.9894 11.3289 70.1544 11.1649 70.1954L1.02087 72.6794C0.856874 72.7194 0.691864 72.6194 0.650864 72.4554L0.463867 71.6904Z" fill="#4D4D4D"/>
<path d="M12.5102 69.5644C13.1722 69.5714 13.2292 64.3474 12.5672 64.3394L11.3502 64.5614C10.7412 64.6724 10.3512 65.2734 10.4992 65.8754L11.2092 68.7754C11.3512 69.3534 11.9332 69.7064 12.5102 69.5644Z" fill="#F71616"/>
<path d="M11.8228 67.4974C11.8228 68.2454 11.2158 68.8524 10.4678 68.8524C9.71979 68.8524 9.11279 68.2464 9.11279 67.4974C9.11279 66.7494 9.71879 66.1424 10.4678 66.1424C11.2168 66.1424 11.8228 66.7494 11.8228 67.4974Z" fill="#F71616"/>
<path d="M92.1479 71.6904L81.4099 69.0604L81.7669 67.6034C82.2529 65.6174 84.2579 64.4014 86.2439 64.8874L89.7889 65.7554C91.7749 66.2414 92.9909 68.2464 92.5049 70.2324L92.1479 71.6904Z" fill="#F71616"/>
<path d="M92.1479 71.6904L81.4099 69.0604L81.2229 69.8254C81.1829 69.9894 81.2829 70.1544 81.4469 70.1954L91.5909 72.6794C91.7549 72.7194 91.9199 72.6194 91.9609 72.4554L92.1479 71.6904Z" fill="#4D4D4D"/>
<path d="M80.1019 69.5644C79.1269 69.5754 79.0699 64.3504 80.0449 64.3394L81.2619 64.5614C81.8709 64.6724 82.2609 65.2734 82.1129 65.8754L81.4029 68.7754C81.2609 69.3534 80.6789 69.7064 80.1019 69.5644Z" fill="#F71616"/>
<path d="M82.992 67.9814C82.992 68.7294 82.385 69.3364 81.637 69.3364C80.889 69.3364 80.282 68.7294 80.282 67.9814C80.282 67.2334 80.889 66.6264 81.637 66.6264C82.386 66.6264 82.992 67.2324 82.992 67.9814Z" fill="#F71616"/>
<g opacity="0.5">
<path opacity="0.5" d="M12.9862 35.4294C12.9862 43.6774 13.4672 57.0164 12.3472 57.0164C11.2272 57.0164 8.93115 43.6774 8.93115 35.4294C8.93115 27.1814 11.2272 27.1484 12.3472 27.1484C13.4672 27.1484 12.9862 27.1814 12.9862 35.4294Z" fill="url(#paint3_linear_110_1513)"/>
<path opacity="0.5" d="M79.7182 35.4294C79.7182 43.6774 79.2372 57.0164 80.3572 57.0164C81.4772 57.0164 83.7732 43.6774 83.7732 35.4294C83.7732 27.1814 81.4772 27.1484 80.3572 27.1484C79.2372 27.1484 79.7182 27.1814 79.7182 35.4294Z" fill="url(#paint4_linear_110_1513)"/>
</g>
<path d="M81.6371 101.82C81.0031 101.82 80.488 101.306 80.488 100.671V94.3504C80.488 93.7164 81.0021 93.2014 81.6371 93.2014C82.2711 93.2014 82.786 93.7154 82.786 94.3504V100.671C82.786 101.306 82.2721 101.82 81.6371 101.82Z" fill="#E5E5E5"/>
<path d="M11.752 101.82C11.118 101.82 10.603 101.306 10.603 100.671V94.3504C10.603 93.7164 11.117 93.2014 11.752 93.2014C12.387 93.2014 12.901 93.7154 12.901 94.3504V100.671C12.901 101.306 12.387 101.82 11.752 101.82Z" fill="#E5E5E5"/>
<path d="M16.8979 60.5684C17.3329 60.4074 31.7349 47.6924 31.7349 47.6924L35.5539 7.64539L34.3439 48.9024L26.1789 56.1304L16.8979 60.5684Z" fill="#D11207"/>
<path d="M75.8059 60.5684C75.3709 60.4074 60.9689 47.6924 60.9689 47.6924L57.1499 7.64539L58.3599 48.9024L66.5249 56.1304L75.8059 60.5684Z" fill="#D11207"/>
<g opacity="0.5">
<path d="M43.213 54.2654V2.8194C41.38 2.9194 39.566 3.1184 37.77 3.4184V54.5874C39.585 54.3244 41.4 54.3644 43.213 54.2654Z" fill="#FBFBFB"/>
<path d="M43.213 141.772V75.1644C41.398 75.2564 39.14 75.4594 37.77 75.7274V141.772H43.213Z" fill="#FBFBFB"/>
<path d="M53.7999 54.4854V3.23741C52.0039 2.98341 50.1799 2.82941 48.3569 2.75641V54.2154C50.1739 54.2584 51.9889 54.3054 53.7999 54.4854Z" fill="#FBFBFB"/>
<path d="M53.7999 141.772V75.5624C52.0539 75.3584 50.3229 75.1644 48.3569 75.1144C48.3569 75.1144 48.3569 141.704 48.3569 141.775C48.3569 141.845 53.7999 141.772 53.7999 141.772Z" fill="#FBFBFB"/>
</g>
<path d="M58.7509 108.427H33.9529C32.7839 108.427 31.8369 107.48 31.8369 106.311V90.6564C31.8369 89.4874 32.7839 88.5404 33.9529 88.5404H58.7509C59.9199 88.5404 60.8669 89.4874 60.8669 90.6564V106.311C60.8669 107.48 59.9199 108.427 58.7509 108.427Z" fill="#191917"/>
<path d="M58.0901 107.282H34.6141C33.5471 107.282 32.6821 106.417 32.6821 105.35V91.6184C32.6821 90.5514 33.5471 89.6864 34.6141 89.6864H58.0901C59.1571 89.6864 60.0221 90.5514 60.0221 91.6184V105.35C60.0221 106.417 59.1571 107.282 58.0901 107.282Z" fill="#484D51"/>
<path d="M11.0098 24.2564C11.0098 24.2564 13.2768 26.9784 15.3928 25.0124C17.5098 23.0474 22.0088 14.4284 20.9688 13.0684C19.9288 11.7074 11.8768 18.4334 11.0098 24.2564Z" fill="#FBFBFB"/>
<path d="M11.0098 24.2564C11.0098 24.2564 13.2768 26.9784 15.3928 25.0124C17.5098 23.0474 22.0088 14.4284 20.9688 13.0684C19.9288 11.7074 11.8768 18.4334 11.0098 24.2564Z" fill="#FBFBFB"/>
<path d="M81.8476 24.2564C81.8476 24.2564 79.5807 26.9784 77.4647 25.0124C75.3477 23.0474 70.8486 14.4284 71.8886 13.0684C72.9286 11.7074 80.9806 18.4334 81.8476 24.2564Z" fill="#FBFBFB"/>
<path opacity="0.2" d="M23.4817 143.853C23.6667 147.127 23.8047 150.413 24.5657 153.562C25.2677 156.704 26.4967 159.74 28.4957 162.167C30.4887 164.593 33.1977 166.344 36.1977 167.296C39.1787 168.314 42.3977 168.632 45.5947 168.648C48.7897 168.643 51.9977 168.288 54.9867 167.276C57.9987 166.327 60.7167 164.598 62.8787 162.308C65.0317 160 66.5667 157.119 67.5527 154.053C68.5887 150.988 69.0157 147.727 69.2217 144.457C69.4257 147.732 69.1807 151.057 68.4077 154.298C67.5977 157.519 66.1667 160.669 63.9337 163.251C61.7297 165.849 58.7527 167.784 55.5467 168.9C52.3347 170.042 48.9347 170.426 45.5927 170.461C43.9197 170.422 42.2407 170.359 40.5717 170.098C38.9037 169.87 37.2387 169.497 35.6367 168.914C32.4307 167.797 29.4257 165.805 27.3857 163.038C25.3017 160.3 24.2087 156.998 23.6967 153.726C23.2147 150.429 23.2597 147.122 23.4817 143.853Z" fill="#A3A3A3"/>
<defs>
<linearGradient id="paint0_linear_110_1513" x1="68.332" y1="16.3052" x2="25.9969" y2="65.2929" gradientUnits="userSpaceOnUse">
<stop stop-color="white"/>
<stop offset="0.0653" stop-color="#FEE3E3"/>
<stop offset="0.2794" stop-color="#FB8C8C"/>
<stop offset="0.4542" stop-color="#F94C4C"/>
<stop offset="0.581" stop-color="#F82525"/>
<stop offset="0.6468" stop-color="#F71616"/>
<stop offset="0.725" stop-color="#F71919"/>
<stop offset="0.7762" stop-color="#F62121"/>
<stop offset="0.8198" stop-color="#F53030"/>
<stop offset="0.859" stop-color="#F34646"/>
<stop offset="0.8954" stop-color="#F06161"/>
<stop offset="0.9296" stop-color="#ED8383"/>
<stop offset="0.9622" stop-color="#E9ABAB"/>
<stop offset="0.9927" stop-color="#E5D8D8"/>
<stop offset="1" stop-color="#E4E4E4"/>
</linearGradient>
<linearGradient id="paint1_linear_110_1513" x1="35.4295" y1="66.9662" x2="61.275" y2="66.9662" gradientUnits="userSpaceOnUse">
<stop stop-color="white"/>
<stop offset="0.1856" stop-color="#C4C4C4"/>
<stop offset="0.4039" stop-color="#858585"/>
<stop offset="0.5638" stop-color="#5E5E5E"/>
<stop offset="0.6468" stop-color="#4F4F4F"/>
<stop offset="0.7343" stop-color="#525252"/>
<stop offset="0.7916" stop-color="#5A5A5A"/>
<stop offset="0.8404" stop-color="#696969"/>
<stop offset="0.8843" stop-color="#7F7F7F"/>
<stop offset="0.925" stop-color="#9A9A9A"/>
<stop offset="0.9628" stop-color="#BBBBBB"/>
<stop offset="0.9986" stop-color="#E2E2E2"/>
<stop offset="1" stop-color="#E4E4E4"/>
</linearGradient>
<linearGradient id="paint2_linear_110_1513" x1="23.4821" y1="108.427" x2="69.2221" y2="108.427" gradientUnits="userSpaceOnUse">
<stop stop-color="white"/>
<stop offset="0.0653" stop-color="#FEE3E3"/>
<stop offset="0.2794" stop-color="#FB8C8C"/>
<stop offset="0.4542" stop-color="#F94C4C"/>
<stop offset="0.581" stop-color="#F82525"/>
<stop offset="0.6468" stop-color="#F71616"/>
<stop offset="0.725" stop-color="#F71919"/>
<stop offset="0.7762" stop-color="#F62121"/>
<stop offset="0.8198" stop-color="#F53030"/>
<stop offset="0.859" stop-color="#F34646"/>
<stop offset="0.8954" stop-color="#F06161"/>
<stop offset="0.9296" stop-color="#ED8383"/>
<stop offset="0.9622" stop-color="#E9ABAB"/>
<stop offset="0.9927" stop-color="#E5D8D8"/>
<stop offset="1" stop-color="#E4E4E4"/>
</linearGradient>
<linearGradient id="paint3_linear_110_1513" x1="11.3393" y1="19.772" x2="10.811" y2="56.1242" gradientUnits="userSpaceOnUse">
<stop stop-color="white"/>
<stop offset="0.9964" stop-color="#F00031"/>
</linearGradient>
<linearGradient id="paint4_linear_110_1513" x1="81.3652" y1="19.772" x2="81.8935" y2="56.1242" gradientUnits="userSpaceOnUse">
<stop stop-color="white"/>
<stop offset="0.9964" stop-color="#F00031"/>
</linearGradient>
</defs>
</svg>
