<svg width="86" height="183" viewBox="0 0 86 183" fill="none" xmlns="http://www.w3.org/2000/svg">
<path d="M47.106 182.76H38.29C17.143 182.76 0 172.421 0 149.222V120.132C0 112.915 5.333 107.065 11.911 107.065H73.485C80.063 107.065 85.396 112.915 85.396 120.132V149.222C85.396 172.421 68.253 182.76 47.106 182.76Z" fill="#005461"/>
<path d="M18.2122 63.1447H17.8502C-1.88979 63.1447 2.40322 17.9906 2.40322 17.9906C2.40322 3.00364 24.2282 2.79266 24.2282 5.93766L18.2122 63.1447Z" fill="#005461"/>
<path d="M66.789 63.1447H67.151C86.891 63.1447 82.598 17.9906 82.598 17.9906C82.598 3.00364 60.7729 2.79266 60.7729 5.93766L66.789 63.1447Z" fill="#005461"/>
<path d="M72.063 50.2467L15.275 49.1067C11.285 49.0267 7.86701 52.5267 7.33101 57.2317C3.16101 93.7997 6.64302 118.494 8.08602 137.392C8.74702 146.048 11.246 154.461 15.657 161.674C22.993 173.673 32.98 178.859 42.699 178.859C52.371 178.859 61.58 173.378 68.553 162.121C72.836 155.207 75.387 147.184 76.305 138.886C78.378 120.129 82.681 95.4187 79.733 58.6847C79.352 53.9617 76.054 50.3267 72.063 50.2467Z" fill="#007987"/>
<path d="M65.1399 55.0536H20.0469L24.2279 4.27463C32.0029 -1.42337 53.1679 -1.42338 60.9509 4.26562L65.1399 55.0536Z" fill="#F0B631"/>
<path d="M68.7172 55.0536H16.4692L21.3192 8.8526C21.4482 7.0546 22.5112 5.52563 24.2282 4.27463C32.0032 -1.42337 53.1682 -1.42338 60.9512 4.26562C62.6672 5.51662 63.7392 7.04562 63.8672 8.85162L68.7172 55.0536Z" fill="#007987"/>
<path opacity="0.3" d="M65.1359 55.0566H20.0469L24.2299 4.27662C24.9579 3.74062 25.8109 3.25362 26.7519 2.82462C30.5439 1.07062 35.8909 0.135622 41.3439 0.0186216C48.9819 -0.156378 56.8319 1.25561 60.9529 4.26661L65.1359 55.0566Z" fill="#007987"/>
<path d="M70.989 59.3666V139.754C70.989 149.379 14.189 149.379 14.189 139.754V59.3676C14.189 57.6616 15.019 56.1676 16.469 54.8686C20.207 51.5456 28.071 49.5746 36.699 48.9646C42.339 48.5666 48.301 48.7526 53.65 49.5126C60.152 50.4316 65.735 52.2166 68.7 54.8596C70.159 56.1586 70.989 57.6606 70.989 59.3666Z" fill="#1B3338"/>
<path d="M70.989 139.754C70.989 149.379 14.189 149.379 14.189 139.754H70.989Z" fill="#232323"/>
<path d="M22.5629 73.0106L16.4709 54.8746C14.8639 54.1876 13.1179 56.5446 14.1929 59.3656L20.0469 75.7726L22.5629 73.0106Z" fill="#007987"/>
<path d="M11.9199 92.7456C10.8529 92.7456 10.8529 97.2756 11.9199 97.2756L21.1909 96.2646V92.4136L11.9199 92.7456Z" fill="#007987"/>
<path d="M73.5722 92.7456C74.6392 92.7456 74.6392 97.2756 73.5722 97.2756L64.3022 96.2646V92.4136L73.5722 92.7456Z" fill="#007987"/>
<path d="M62.29 73.0106L68.382 54.8746C69.989 54.1876 71.735 56.5446 70.661 59.3656L64.807 75.7726L62.29 73.0106Z" fill="#007987"/>
<path d="M22.5999 131.377L16.8259 145.648C15.2529 146.182 13.4869 144.348 14.4969 142.146L20.0469 129.174L22.5999 131.377Z" fill="#007987"/>
<path opacity="0.2" d="M56.155 146.184C48.37 147.111 40.338 147.22 32.057 146.512L26.75 119.915C32.39 119.517 46.661 117.924 52.011 118.684L56.155 146.184Z" fill="url(#paint0_linear_110_1936)"/>
<path d="M62.2539 131.377L68.0279 145.648C69.6009 146.182 71.3669 144.348 70.3569 142.146L64.8069 129.174L62.2539 131.377Z" fill="#007987"/>
<path d="M1.83205 67.1256L11.369 64.5636L11.052 63.1446C10.62 61.2096 8.84004 60.0246 7.07604 60.4986L3.92804 61.3446C2.16404 61.8186 1.08404 63.7716 1.51604 65.7066L1.83205 67.1256Z" fill="#0BA6AD"/>
<path d="M1.83203 67.1256L11.369 64.5636L11.536 65.3096C11.572 65.4696 11.483 65.6306 11.337 65.6696L2.32802 68.0896C2.18202 68.1286 2.03503 68.0306 2.00003 67.8706L1.83203 67.1256Z" fill="#4D4D4D"/>
<path d="M12.5301 65.0556C13.1171 65.0626 13.168 59.9726 12.581 59.9656L11.501 60.1816C10.96 60.2896 10.614 60.8756 10.745 61.4616L11.376 64.2866C11.501 64.8486 12.0181 65.1926 12.5301 65.0556Z" fill="#0BA6AD"/>
<path d="M11.9202 63.0406C11.9202 63.7696 11.3812 64.3606 10.7172 64.3606C10.0532 64.3606 9.51416 63.7696 9.51416 63.0406C9.51416 62.3116 10.0532 61.7206 10.7172 61.7206C11.3812 61.7206 11.9202 62.3116 11.9202 63.0406Z" fill="#0BA6AD"/>
<path d="M83.2572 67.1256L73.7202 64.5636L74.0372 63.1446C74.4692 61.2096 76.2492 60.0246 78.0132 60.4986L81.1612 61.3446C82.9252 61.8186 84.0052 63.7716 83.5732 65.7066L83.2572 67.1256Z" fill="#0BA6AD"/>
<path d="M83.2571 67.1256L73.7201 64.5636L73.5541 65.3096C73.5181 65.4696 73.6071 65.6306 73.7531 65.6696L82.7621 68.0896C82.9081 68.1286 83.0551 68.0306 83.0901 67.8706L83.2571 67.1256Z" fill="#4D4D4D"/>
<path d="M72.5591 65.0556C71.6931 65.0656 71.6421 59.9756 72.5081 59.9656L73.5881 60.1816C74.1291 60.2896 74.4751 60.8756 74.3441 61.4616L73.7131 64.2866C73.5881 64.8486 73.0711 65.1926 72.5591 65.0556Z" fill="#0BA6AD"/>
<path d="M75.1262 63.5126C75.1262 64.2416 74.5872 64.8326 73.9232 64.8326C73.2592 64.8326 72.7202 64.2416 72.7202 63.5126C72.7202 62.7836 73.2592 62.1926 73.9232 62.1926C74.5872 62.1926 75.1262 62.7826 75.1262 63.5126Z" fill="#0BA6AD"/>
<path d="M68.7172 55.0536L16.4692 54.8766V54.8676C25.6132 46.7276 59.5562 46.7276 68.7012 54.8586C68.7092 54.9826 68.7172 55.0536 68.7172 55.0536Z" fill="#232323"/>
<path opacity="0.2" d="M57.1562 74.7366H34.2021L36.7001 48.9636C42.3401 48.5656 48.3022 48.7516 53.6512 49.5116L57.1562 74.7366Z" fill="url(#paint1_linear_110_1936)"/>
<path opacity="0.5" d="M10.4482 22.2066C10.4482 29.7066 9.53924 41.8356 8.41724 41.8356C7.29524 41.8356 6.38623 29.7066 6.38623 22.2066C6.38623 14.7066 7.29524 14.6766 8.41724 14.6766C9.53924 14.6766 10.4482 14.7076 10.4482 22.2066Z" fill="url(#paint2_linear_110_1936)"/>
<path opacity="0.5" d="M79.1552 22.2066C79.1552 29.7066 78.3492 41.8356 77.3542 41.8356C76.3592 41.8356 75.5532 29.7066 75.5532 22.2066C75.5532 14.7066 76.3592 14.6766 77.3542 14.6766C78.3492 14.6766 79.1552 14.7076 79.1552 22.2066Z" fill="url(#paint3_linear_110_1936)"/>
<path d="M16.2451 54.5987C18.0851 52.9107 20.2101 51.9117 22.3641 51.0037C24.5361 50.1557 26.7681 49.5127 29.0261 49.0467C33.5441 48.1067 38.1501 47.8907 42.7131 47.8997C43.8541 47.9127 44.9941 47.9477 46.1351 48.0127C47.2761 48.0547 48.4161 48.1407 49.5561 48.2327C51.8341 48.4227 54.1151 48.6667 56.3731 49.1087C58.6321 49.5257 60.8811 50.0687 63.0781 50.8517C64.1681 51.2757 65.2541 51.7187 66.2881 52.3277C67.3021 52.9427 68.3841 53.5847 69.0251 54.8997L68.4091 55.2067C67.8951 54.3367 66.8581 53.7277 65.8821 53.2377C64.8851 52.7337 63.8141 52.3767 62.7471 52.0407C60.6001 51.3807 58.3891 50.9347 56.1631 50.6197C51.7141 49.9517 47.2041 49.6917 42.6961 49.6647C38.1921 49.5717 33.6941 49.7987 29.2651 50.5517C27.0491 50.9127 24.8611 51.4547 22.7291 52.1797C20.6101 52.8867 18.4711 53.8117 16.6951 55.1547L16.2451 54.5987Z" fill="#0C0C0C"/>
<path d="M11.99 92.4136H11.964C11.408 92.4136 10.957 91.9626 10.957 91.4066V85.0246C10.957 84.4686 11.408 84.0176 11.964 84.0176H11.99C12.546 84.0176 12.997 84.4686 12.997 85.0246V91.4066C12.997 91.9636 12.546 92.4136 11.99 92.4136Z" fill="#2D2D2D"/>
<path d="M73.3792 92.4136H73.3532C72.7972 92.4136 72.3462 91.9626 72.3462 91.4066V85.0246C72.3462 84.4686 72.7972 84.0176 73.3532 84.0176H73.3792C73.9352 84.0176 74.3862 84.4686 74.3862 85.0246V91.4066C74.3862 91.9636 73.9352 92.4136 73.3792 92.4136Z" fill="#2D2D2D"/>
<path d="M11.99 136.878H11.964C11.408 136.878 10.957 136.427 10.957 135.871V129.489C10.957 128.933 11.408 128.482 11.964 128.482H11.99C12.546 128.482 12.997 128.933 12.997 129.489V135.871C12.997 136.427 12.546 136.878 11.99 136.878Z" fill="#2D2D2D"/>
<path d="M73.3792 136.878H73.3532C72.7972 136.878 72.3462 136.427 72.3462 135.871V129.489C72.3462 128.933 72.7972 128.482 73.3532 128.482H73.3792C73.9352 128.482 74.3862 128.933 74.3862 129.489V135.871C74.3862 136.427 73.9352 136.878 73.3792 136.878Z" fill="#2D2D2D"/>
<path d="M63.1232 132.104C49.5672 133.721 35.8182 133.969 22.2732 132.104C20.9542 132.104 19.5632 130.509 19.2162 128.535C16.5152 108.835 16.5072 90.7096 19.1702 71.0476C19.5142 69.0736 20.9052 67.4776 22.2272 67.4776C35.7762 65.2516 49.6042 65.5466 63.1692 67.4776C64.4912 67.4776 65.8812 69.0726 66.2262 71.0476C68.8902 90.7106 68.8812 108.835 66.1802 128.535C65.8332 130.509 64.4422 132.104 63.1232 132.104Z" fill="#007987"/>
<path opacity="0.3" d="M59.1181 128.735C48.1201 129.739 37.2641 130.597 26.2781 128.735C25.2181 128.735 24.1571 127.303 23.9391 125.531C22.2691 108.108 22.2611 91.4286 23.9101 74.0236C24.1261 72.2516 25.1871 70.8196 26.2491 70.8196C37.2641 68.5856 48.1141 69.6166 59.1461 70.8196C60.2081 70.8196 61.2691 72.2516 61.4851 74.0236C63.1341 91.4296 63.1271 108.108 61.4561 125.531C61.2391 127.303 60.1781 128.735 59.1181 128.735Z" fill="url(#paint4_linear_110_1936)"/>
<path opacity="0.2" d="M41.4499 0.662659C41.4499 0.662659 41.4499 23.8696 41.4499 35.4346C41.4499 47.0096 25.4199 46.2786 24.2299 43.7936C23.0399 41.3096 26.7519 4.24765 26.7519 4.24765V2.82565C30.5439 1.07165 35.8909 0.136653 41.3439 0.0196533L41.4499 0.662659Z" fill="#FBFBFB"/>
<path opacity="0.2" d="M44.002 0.662659C44.002 0.662659 44.002 23.8696 44.002 35.4346C44.002 47.0096 60.032 46.2786 61.222 43.7936C62.412 41.3096 58.7 4.24765 58.7 4.24765V2.82565C54.908 1.07165 49.561 0.136653 44.108 0.0196533L44.002 0.662659Z" fill="#FBFBFB"/>
<path d="M54.515 170.639C54.515 173.824 49.359 176.406 42.998 176.406C36.638 176.406 31.481 173.824 31.481 170.639C31.482 167.454 54.515 167.454 54.515 170.639Z" fill="#004169"/>
<path d="M53.5062 171.11C53.5062 174.034 48.8022 176.405 42.9982 176.405C37.1952 176.405 32.4902 174.034 32.4902 171.11C32.4912 168.186 53.5062 168.186 53.5062 171.11Z" fill="#005461"/>
<path d="M71.3419 11.0107C67.9839 10.3057 65.418 8.63164 65.613 7.27064C65.807 5.90964 68.6869 5.37765 72.0449 6.08265C75.4029 6.78765 77.9689 8.46164 77.7749 9.82264C77.5799 11.1836 74.7009 11.7157 71.3419 11.0107Z" fill="#546D70"/>
<path d="M71.5769 9.36162C68.9239 8.80462 66.8599 7.74762 66.9669 6.99962C67.0739 6.25162 69.3109 6.09665 71.9629 6.65365C74.6149 7.21065 76.6799 8.26765 76.5729 9.01565C76.4669 9.76265 74.2299 9.91762 71.5769 9.36162Z" fill="#FBFBFB"/>
<path opacity="0.2" d="M71.485 10.7306C70.074 10.4346 68.9991 9.70862 69.0351 9.46062C69.0701 9.21362 70.2021 9.53864 71.6131 9.83464C73.0241 10.1306 74.18 10.2856 74.145 10.5326C74.11 10.7806 72.896 11.0266 71.485 10.7306Z" fill="#FBFBFB"/>
<path d="M14.2129 11.0107C17.5709 10.3057 20.1369 8.63164 19.9419 7.27064C19.7479 5.90964 16.8679 5.37765 13.5099 6.08265C10.1519 6.78765 7.58593 8.46164 7.78093 9.82264C7.97393 11.1836 10.8539 11.7157 14.2129 11.0107Z" fill="#546D70"/>
<path d="M13.977 9.36162C16.63 8.80462 18.694 7.74762 18.587 6.99962C18.48 6.25162 16.243 6.09665 13.591 6.65365C10.939 7.21065 8.87403 8.26765 8.98103 9.01565C9.08803 9.76265 11.325 9.91762 13.977 9.36162Z" fill="#FBFBFB"/>
<path opacity="0.2" d="M14.07 10.7306C15.481 10.4346 16.556 9.70862 16.52 9.46062C16.485 9.21362 15.353 9.53864 13.942 9.83464C12.531 10.1306 11.375 10.2856 11.41 10.5326C11.446 10.7806 12.659 11.0266 14.07 10.7306Z" fill="#FBFBFB"/>
<path d="M68.1333 151.702C67.9633 151.752 67.8033 151.792 67.6333 151.832C67.3533 151.912 67.0733 151.982 66.8033 152.052C66.4433 152.152 66.0933 152.232 65.7433 152.322C65.4633 152.392 65.1833 152.462 64.9033 152.532C64.5533 152.612 64.2033 152.692 63.8433 152.772C63.5733 152.832 63.2933 152.902 63.0133 152.952C62.6633 153.032 62.3033 153.112 61.9533 153.182C61.6733 153.242 61.3933 153.302 61.1133 153.352C60.7633 153.422 60.4033 153.492 60.0533 153.562C59.7733 153.612 59.5033 153.662 59.2233 153.702C58.8733 153.772 58.5133 153.832 58.1633 153.882C57.8833 153.932 57.6133 153.982 57.3333 154.022C56.9833 154.082 56.6233 154.132 56.2733 154.182C55.9933 154.222 55.7133 154.262 55.4333 154.302C55.0833 154.342 54.7233 154.392 54.3733 154.432C54.0933 154.472 53.8233 154.502 53.5433 154.532C53.1933 154.582 52.8433 154.612 52.4833 154.642C52.2133 154.682 51.9333 154.712 51.6533 154.732C51.3033 154.772 50.9433 154.802 50.5933 154.832C50.3133 154.852 50.0333 154.882 49.7533 154.892C49.4033 154.922 49.0433 154.952 48.6933 154.972C48.4133 154.992 48.1433 155.012 47.8633 155.022C47.5133 155.042 47.1533 155.062 46.8033 155.072C46.5233 155.092 46.2433 155.102 45.9733 155.112C45.6133 155.122 45.2633 155.132 44.9133 155.142C44.6333 155.152 44.3533 155.152 44.0733 155.162C43.7233 155.162 43.3633 155.172 43.0133 155.172H42.1833C41.8333 155.172 41.4733 155.162 41.1233 155.162C40.8533 155.152 40.5733 155.152 40.2933 155.142C39.9433 155.132 39.5933 155.122 39.2333 155.112C38.9533 155.102 38.6733 155.092 38.3933 155.082C38.0433 155.062 37.6933 155.052 37.3333 155.022C37.0533 155.012 36.7833 154.992 36.5033 154.972C36.1433 154.952 35.7933 154.932 35.4433 154.902C35.1633 154.882 34.8833 154.862 34.6133 154.832C34.2633 154.812 33.9033 154.782 33.5533 154.742C33.2733 154.722 32.9933 154.692 32.7133 154.652C32.3633 154.622 32.0133 154.582 31.6533 154.542C31.3833 154.512 31.1033 154.482 30.8233 154.442C30.4733 154.402 30.1133 154.352 29.7633 154.312C29.4833 154.272 29.2033 154.232 28.9233 154.192C28.5733 154.142 28.2233 154.092 27.8633 154.032C27.5833 153.992 27.3133 153.942 27.0333 153.892C26.6833 153.842 26.3233 153.782 25.9733 153.712C25.6933 153.672 25.4133 153.612 25.1433 153.572C24.7833 153.502 24.4333 153.432 24.0833 153.362C23.8033 153.312 23.5233 153.252 23.2433 153.192C22.8933 153.122 22.5433 153.042 22.1833 152.962C21.9133 152.912 21.6333 152.842 21.3533 152.782C21.0033 152.702 20.6533 152.622 20.2933 152.542C20.0233 152.472 19.7433 152.402 19.4633 152.332C19.1133 152.242 18.7533 152.152 18.4033 152.062C18.1233 151.992 17.8433 151.922 17.5633 151.842C17.3933 151.792 17.2133 151.752 17.0433 151.702C16.4133 151.532 16.0433 150.872 16.2233 150.252L16.9533 147.692C17.0533 147.362 17.2833 147.112 17.5633 146.972C17.8033 146.842 18.1033 146.812 18.3833 146.892C18.3933 146.892 18.3933 146.892 18.4033 146.902C18.7533 146.992 19.1133 147.092 19.4633 147.182C19.7433 147.252 20.0133 147.322 20.2933 147.392C20.6433 147.482 20.9933 147.562 21.3533 147.652C21.6233 147.712 21.9033 147.782 22.1833 147.842C22.5333 147.922 22.8933 148.002 23.2433 148.072C23.5233 148.142 23.8033 148.202 24.0833 148.252C24.4333 148.332 24.7933 148.402 25.1433 148.472C25.4233 148.522 25.6933 148.582 25.9733 148.632C26.3233 148.692 26.6733 148.762 27.0333 148.822C27.3033 148.872 27.5833 148.912 27.8633 148.962C28.2133 149.022 28.5633 149.072 28.9233 149.132C29.2033 149.172 29.4833 149.212 29.7633 149.252C30.1133 149.302 30.4733 149.352 30.8233 149.402C31.1033 149.432 31.3733 149.472 31.6533 149.502C32.0033 149.552 32.3633 149.592 32.7133 149.632C32.9933 149.662 33.2733 149.692 33.5533 149.722C33.9033 149.752 34.2533 149.782 34.6133 149.822C34.8933 149.842 35.1633 149.862 35.4433 149.882C35.7933 149.912 36.1433 149.942 36.5033 149.962C36.7733 149.982 37.0533 150.002 37.3333 150.012C37.6833 150.042 38.0433 150.062 38.3933 150.072C38.6733 150.092 38.9533 150.102 39.2333 150.112C39.5833 150.122 39.9433 150.132 40.2933 150.142C40.5733 150.152 40.8533 150.152 41.1233 150.162C41.4833 150.162 41.8333 150.172 42.1833 150.172H43.0133C43.3633 150.172 43.7133 150.162 44.0733 150.162C44.3533 150.152 44.6333 150.152 44.9133 150.142C45.2633 150.132 45.6233 150.122 45.9733 150.102C46.2533 150.092 46.5233 150.082 46.8033 150.062C47.1533 150.052 47.5133 150.032 47.8633 150.012C48.1433 150.002 48.4133 149.982 48.6933 149.952C49.0533 149.942 49.4033 149.912 49.7533 149.882C50.0333 149.862 50.3133 149.832 50.5933 149.812C50.9433 149.782 51.2933 149.742 51.6533 149.712C51.9233 149.682 52.2033 149.652 52.4833 149.622C52.8333 149.582 53.1933 149.542 53.5433 149.492C53.8233 149.462 54.0933 149.432 54.3733 149.392C54.7233 149.342 55.0833 149.292 55.4333 149.242C55.7133 149.202 55.9933 149.162 56.2733 149.122C56.6333 149.062 56.9833 149.012 57.3333 148.952C57.6133 148.912 57.8833 148.862 58.1633 148.812C58.5133 148.752 58.8733 148.682 59.2233 148.622C59.5033 148.572 59.7833 148.512 60.0533 148.462C60.4033 148.392 60.7633 148.322 61.1133 148.242C61.3933 148.192 61.6733 148.132 61.9533 148.072C62.3033 147.992 62.6633 147.922 63.0133 147.832C63.2833 147.772 63.5633 147.712 63.8433 147.652C64.1933 147.562 64.5433 147.472 64.9033 147.392C65.1833 147.312 65.4633 147.242 65.7433 147.172C66.0933 147.082 66.4533 146.992 66.8033 146.892C67.0933 146.812 67.3933 146.852 67.6333 146.982C67.9133 147.122 68.1433 147.372 68.2333 147.692L68.9533 150.252C69.1333 150.872 68.7633 151.532 68.1333 151.702Z" fill="#2D2D2D"/>
<path d="M18.403 146.902V152.062C18.123 151.992 17.843 151.922 17.563 151.842V146.972C17.803 146.842 18.103 146.812 18.383 146.892C18.393 146.892 18.393 146.892 18.403 146.902Z" fill="#484D51"/>
<path d="M20.2929 147.392V152.542C20.0229 152.472 19.7429 152.402 19.4629 152.332V147.182C19.7429 147.252 20.0129 147.322 20.2929 147.392Z" fill="#484D51"/>
<path d="M22.183 147.842V152.962C21.913 152.912 21.633 152.842 21.353 152.782V147.652C21.623 147.712 21.903 147.782 22.183 147.842Z" fill="#484D51"/>
<path d="M24.0829 148.252V153.362C23.8029 153.312 23.5229 153.252 23.2429 153.192V148.072C23.5229 148.142 23.8029 148.202 24.0829 148.252Z" fill="#484D51"/>
<path d="M25.9731 148.632V153.712C25.6931 153.672 25.4131 153.612 25.1431 153.572V148.472C25.4231 148.522 25.6931 148.582 25.9731 148.632Z" fill="#484D51"/>
<path d="M27.863 148.962V154.032C27.583 153.992 27.313 153.942 27.033 153.892V148.822C27.303 148.872 27.583 148.912 27.863 148.962Z" fill="#484D51"/>
<path d="M29.7631 149.252V154.312C29.4831 154.272 29.2031 154.232 28.9231 154.192V149.132C29.2031 149.172 29.4831 149.212 29.7631 149.252Z" fill="#484D51"/>
<path d="M31.653 149.502V154.542C31.383 154.512 31.103 154.482 30.823 154.442V149.402C31.103 149.432 31.373 149.472 31.653 149.502Z" fill="#484D51"/>
<path d="M33.5529 149.722V154.742C33.2729 154.722 32.9929 154.692 32.7129 154.652V149.632C32.9929 149.662 33.2729 149.692 33.5529 149.722Z" fill="#484D51"/>
<path d="M35.443 149.882V154.902C35.163 154.882 34.883 154.862 34.613 154.832V149.822C34.893 149.842 35.163 149.862 35.443 149.882Z" fill="#484D51"/>
<path d="M37.3329 150.012V155.022C37.0529 155.012 36.7829 154.992 36.5029 154.972V149.962C36.7729 149.982 37.0529 150.002 37.3329 150.012Z" fill="#484D51"/>
<path d="M39.2331 150.112V155.112C38.9531 155.102 38.6731 155.092 38.3931 155.082V150.072C38.6731 150.092 38.9531 150.102 39.2331 150.112Z" fill="#484D51"/>
<path d="M41.123 150.162V155.162C40.853 155.152 40.573 155.152 40.293 155.142V150.142C40.573 150.152 40.853 150.152 41.123 150.162Z" fill="#484D51"/>
<path d="M43.0131 150.172H42.1831V155.172H43.0131V150.172Z" fill="#484D51"/>
<path d="M44.913 150.142V155.142C44.633 155.152 44.353 155.152 44.073 155.162V150.162C44.353 150.152 44.633 150.152 44.913 150.142Z" fill="#484D51"/>
<path d="M46.8029 150.062V155.072C46.5229 155.092 46.2429 155.102 45.9729 155.112V150.102C46.2529 150.092 46.5229 150.082 46.8029 150.062Z" fill="#484D51"/>
<path d="M48.693 149.952V154.972C48.413 154.992 48.143 155.012 47.863 155.022V150.012C48.143 150.002 48.413 149.982 48.693 149.952Z" fill="#484D51"/>
<path d="M50.5929 149.812V154.832C50.3129 154.852 50.0329 154.882 49.7529 154.892V149.882C50.0329 149.862 50.3129 149.832 50.5929 149.812Z" fill="#484D51"/>
<path d="M52.4831 149.622V154.642C52.2131 154.682 51.9331 154.712 51.6531 154.732V149.712C51.9231 149.682 52.2031 149.652 52.4831 149.622Z" fill="#484D51"/>
<path d="M54.373 149.392V154.432C54.093 154.472 53.823 154.502 53.543 154.532V149.492C53.823 149.462 54.093 149.432 54.373 149.392Z" fill="#484D51"/>
<path d="M56.2731 149.122V154.182C55.9931 154.222 55.7131 154.262 55.4331 154.302V149.242C55.7131 149.202 55.9931 149.162 56.2731 149.122Z" fill="#484D51"/>
<path d="M58.163 148.812V153.882C57.883 153.932 57.613 153.982 57.333 154.022V148.952C57.613 148.912 57.883 148.862 58.163 148.812Z" fill="#484D51"/>
<path d="M60.0529 148.462V153.562C59.7729 153.612 59.5029 153.662 59.2229 153.702V148.622C59.5029 148.572 59.7829 148.512 60.0529 148.462Z" fill="#484D51"/>
<path d="M61.953 148.072V153.182C61.673 153.242 61.393 153.302 61.113 153.352V148.242C61.393 148.192 61.673 148.132 61.953 148.072Z" fill="#484D51"/>
<path d="M63.8429 147.652V152.772C63.5729 152.832 63.2929 152.902 63.0129 152.952V147.832C63.2829 147.772 63.5629 147.712 63.8429 147.652Z" fill="#484D51"/>
<path d="M65.7431 147.172V152.322C65.4631 152.392 65.1831 152.462 64.9031 152.532V147.392C65.1831 147.312 65.4631 147.242 65.7431 147.172Z" fill="#484D51"/>
<path d="M67.633 146.982V151.832C67.353 151.912 67.073 151.982 66.803 152.052V146.892C67.093 146.812 67.393 146.852 67.633 146.982Z" fill="#484D51"/>
<path d="M11.156 163.142H6.14502V159.382C6.14502 158.125 7.16402 157.106 8.42102 157.106H8.88103C10.138 157.106 11.157 158.125 11.157 159.382V163.142H11.156Z" fill="#007987"/>
<path d="M10.8381 162.995H6.46411V165.559C6.46411 166.559 7.27411 167.369 8.27411 167.369H9.02812C10.0281 167.369 10.8381 166.559 10.8381 165.559V162.995Z" fill="#D11207"/>
<path d="M9.81909 164.949C9.81909 165.77 9.44809 166.435 8.99109 166.435C8.53409 166.435 8.16309 165.77 8.16309 164.949C8.16309 164.128 8.53409 163.463 8.99109 163.463C9.44809 163.463 9.81909 164.128 9.81909 164.949Z" fill="#DD2824"/>
<path opacity="0.2" d="M9.81909 160.124C9.81909 160.945 9.44809 161.61 8.99109 161.61C8.53409 161.61 8.16309 160.945 8.16309 160.124C8.16309 159.303 8.53409 158.638 8.99109 158.638C9.44809 158.638 9.81909 159.303 9.81909 160.124Z" fill="#FBFBFB"/>
<path d="M77.9812 163.142H72.9702V159.382C72.9702 158.125 73.9892 157.106 75.2462 157.106H75.7062C76.9632 157.106 77.9822 158.125 77.9822 159.382V163.142H77.9812Z" fill="#007987"/>
<path d="M77.6621 162.995H73.2881V165.559C73.2881 166.559 74.0981 167.369 75.0981 167.369H75.8521C76.8521 167.369 77.6621 166.559 77.6621 165.559V162.995Z" fill="#D11207"/>
<path d="M76.6433 164.949C76.6433 165.77 76.2723 166.435 75.8153 166.435C75.3583 166.435 74.9873 165.77 74.9873 164.949C74.9873 164.128 75.3583 163.463 75.8153 163.463C76.2723 163.463 76.6433 164.128 76.6433 164.949Z" fill="#DD2824"/>
<path opacity="0.2" d="M76.6433 160.124C76.6433 160.945 76.2723 161.61 75.8153 161.61C75.3583 161.61 74.9873 160.945 74.9873 160.124C74.9873 159.303 75.3583 158.638 75.8153 158.638C76.2723 158.638 76.6433 159.303 76.6433 160.124Z" fill="#FBFBFB"/>
<defs>
<linearGradient id="paint0_linear_110_1936" x1="26.7501" y1="132.726" x2="56.1553" y2="132.726" gradientUnits="userSpaceOnUse">
<stop stop-color="white"/>
<stop offset="0.1856" stop-color="#C4C4C4"/>
<stop offset="0.4039" stop-color="#858585"/>
<stop offset="0.5638" stop-color="#5E5E5E"/>
<stop offset="0.6468" stop-color="#4F4F4F"/>
<stop offset="0.7343" stop-color="#525252"/>
<stop offset="0.7916" stop-color="#5A5A5A"/>
<stop offset="0.8404" stop-color="#696969"/>
<stop offset="0.8843" stop-color="#7F7F7F"/>
<stop offset="0.925" stop-color="#9A9A9A"/>
<stop offset="0.9628" stop-color="#BBBBBB"/>
<stop offset="0.9986" stop-color="#E2E2E2"/>
<stop offset="1" stop-color="#E4E4E4"/>
</linearGradient>
<linearGradient id="paint1_linear_110_1936" x1="34.2023" y1="61.7486" x2="57.156" y2="61.7486" gradientUnits="userSpaceOnUse">
<stop stop-color="white"/>
<stop offset="0.1856" stop-color="#C4C4C4"/>
<stop offset="0.4039" stop-color="#858585"/>
<stop offset="0.5638" stop-color="#5E5E5E"/>
<stop offset="0.6468" stop-color="#4F4F4F"/>
<stop offset="0.7343" stop-color="#525252"/>
<stop offset="0.7916" stop-color="#5A5A5A"/>
<stop offset="0.8404" stop-color="#696969"/>
<stop offset="0.8843" stop-color="#7F7F7F"/>
<stop offset="0.925" stop-color="#9A9A9A"/>
<stop offset="0.9628" stop-color="#BBBBBB"/>
<stop offset="0.9986" stop-color="#E2E2E2"/>
<stop offset="1" stop-color="#E4E4E4"/>
</linearGradient>
<linearGradient id="paint2_linear_110_1936" x1="8.62514" y1="7.98614" x2="8.14474" y2="41.041" gradientUnits="userSpaceOnUse">
<stop stop-color="white"/>
<stop offset="1" stop-color="#005461"/>
</linearGradient>
<linearGradient id="paint3_linear_110_1936" x1="77.5622" y1="7.98644" x2="77.0819" y2="41.041" gradientUnits="userSpaceOnUse">
<stop stop-color="white"/>
<stop offset="1" stop-color="#005461"/>
</linearGradient>
<linearGradient id="paint4_linear_110_1936" x1="54.8148" y1="81.2328" x2="37.786" y2="107.263" gradientUnits="userSpaceOnUse">
<stop stop-color="white"/>
<stop offset="1" stop-color="#5C919A"/>
</linearGradient>
</defs>
</svg>
