<svg width="93" height="182" viewBox="0 0 93 182" fill="none" xmlns="http://www.w3.org/2000/svg">
<path d="M65.843 178.036C77.409 176.278 81.513 173.42 81.513 171.506L83.781 164.187C83.781 164.187 86.049 169.475 86.049 171.506C86.049 175.936 81.037 179.217 71.134 181.282C68.678 181.795 66.26 180.291 65.843 178.036Z" fill="#484D51"/>
<path d="M28.5209 178.277C28.1489 180.555 25.7349 182.071 23.2469 181.607C12.3779 179.581 6.6709 176.12 6.6709 171.506C6.6709 169.475 8.9389 163.874 8.9389 163.874L11.2069 171.506C11.2069 173.717 16.5609 176.667 28.5219 178.271L28.5209 178.277Z" fill="#484D51"/>
<path d="M85.4239 20.8788L7.36387 21.1358L7.33988 13.9528C7.27888 -4.47821 85.3389 -4.73619 85.3999 13.6958L85.4239 20.8788Z" fill="#484D51"/>
<path d="M83.781 25.7228H8.93896V159.026H83.781V25.7228Z" fill="#F0B631"/>
<path d="M83.781 20.6068H8.93896V14.2338C8.93896 -2.11919 83.781 -2.11919 83.781 14.2338V20.6068Z" fill="#F7AF2F"/>
<path d="M81.6369 15.1218V20.6018H11.0869V15.1218C11.0869 12.7018 13.1669 10.7018 16.6269 9.11178L17.1069 8.90179C18.3869 8.34179 19.8469 7.84178 21.4469 7.39178C34.8869 3.61178 58.1969 3.63179 71.5169 7.46179H71.5269C72.2769 7.68179 72.9869 7.90179 73.6769 8.15179L73.7369 8.17178C78.5869 9.87178 81.6369 12.1918 81.6369 15.1218Z" fill="#F28F00"/>
<path d="M29.3108 7.6358L24.7568 10.4708V4.00479C24.7568 3.38079 25.1668 2.87479 25.6728 2.87479L28.3948 1.9678C28.9008 1.9678 29.3108 2.47381 29.3108 3.09781V7.6358Z" fill="#FBFBFB"/>
<path d="M63.2939 7.6358L67.8479 10.4708V4.00479C67.8479 3.38079 67.4379 2.87479 66.9319 2.87479L64.2099 1.9678C63.7039 1.9678 63.2939 2.47381 63.2939 3.09781V7.6358Z" fill="#FBFBFB"/>
<path d="M83.781 26.0508H8.93896V20.5608C8.93896 6.47379 83.781 6.47379 83.781 20.5608V26.0508Z" fill="#F0B631"/>
<path d="M75.7758 62.0488H16.9458L22.4068 13.7968C22.5518 11.9188 23.7498 10.3228 25.6818 9.0158C34.4358 3.0648 58.2678 3.0648 67.0308 9.0068C68.9628 10.3128 70.1698 11.9098 70.3148 13.7968L75.7758 62.0488Z" fill="#EAA10F"/>
<path d="M71.7481 62.0488H20.9741L25.6821 9.0158C34.4361 3.0648 58.2681 3.0648 67.0311 9.0068L71.7481 62.0488Z" fill="#F0B631"/>
<path opacity="0.3" d="M71.7481 62.0488H20.9741L25.6821 9.0158C34.4361 3.0648 58.2681 3.0648 67.0311 9.0068L71.7481 62.0488Z" fill="url(#paint0_linear_110_1618)"/>
<path d="M65.0432 9.9958H27.6792L27.9372 9.82881C27.7672 4.58381 64.6182 4.63782 64.7802 9.82582L65.0432 9.9958Z" fill="#484D51"/>
<path d="M78.3349 66.4758V148.984C78.3349 158.863 14.3789 158.863 14.3789 148.984V66.4758C14.3789 64.7248 15.3129 63.1918 16.9459 61.8588C21.1549 58.4478 30.0089 56.4248 39.7249 55.7988C46.0749 55.3908 52.7879 55.5808 58.8119 56.3608C66.1329 57.3038 72.4199 59.1368 75.7579 61.8488C77.3999 63.1828 78.3349 64.7248 78.3349 66.4758Z" fill="#1B3338"/>
<path d="M78.3349 148.984C78.3349 158.863 14.3789 158.863 14.3789 148.984H78.3349Z" fill="#232323"/>
<path d="M83.777 158.702V169.282C83.777 179.172 49.377 182.362 27.227 178.842C16.697 177.162 8.93701 173.982 8.93701 169.282V158.702H83.777Z" fill="#F0B631"/>
<path d="M23.808 80.4798L16.948 61.8648C15.138 61.1598 13.173 63.5798 14.382 66.4738L20.973 83.3138L23.808 80.4798Z" fill="#F0B631"/>
<path d="M11.8229 100.735C10.6209 100.735 10.6209 105.384 11.8229 105.384L22.2619 104.347V100.395L11.8229 100.735Z" fill="#F0B631"/>
<path d="M81.2429 100.735C82.4449 100.735 82.4449 105.384 81.2429 105.384L70.8049 104.347V100.395L81.2429 100.735Z" fill="#F0B631"/>
<path d="M68.54 80.4798L75.4 61.8648C77.21 61.1598 79.175 63.5798 77.966 66.4738L71.375 83.3138L68.54 80.4798Z" fill="#F0B631"/>
<path d="M23.8477 126.813L17.3457 154.946C15.5747 155.998 13.5867 152.383 14.7227 148.042L20.9727 122.47L23.8477 126.813Z" fill="#F0B631"/>
<path opacity="0.2" d="M61.632 155.584C52.867 156.535 43.822 156.647 34.498 155.92L28.522 128.621C34.872 128.213 50.942 126.578 56.965 127.358L61.632 155.584Z" fill="url(#paint1_linear_110_1618)"/>
<path d="M68.499 126.813L75.001 154.946C76.772 155.998 78.76 152.383 77.624 148.042L71.374 122.47L68.499 126.813Z" fill="#F0B631"/>
<path d="M69.0891 128.216C53.2491 129.464 38.0281 129.589 23.6311 128.216C22.1631 128.216 20.9731 127.026 20.9731 125.558V83.1378C20.9731 81.6698 22.1631 80.4798 23.6311 80.4798C38.0281 78.8368 53.2501 78.9868 69.0891 80.4798C70.5571 80.4798 71.7471 81.6698 71.7471 83.1378V125.558C71.7471 127.026 70.5571 128.216 69.0891 128.216Z" fill="#F7AF2F"/>
<path opacity="0.3" d="M64.1389 125.707C51.7489 126.824 39.8429 126.936 28.5819 125.707C27.4339 125.707 26.5029 124.642 26.5029 123.327V85.3478C26.5029 84.0338 27.4339 82.9678 28.5819 82.9678C39.8429 81.4968 51.7499 81.6308 64.1389 82.9678C65.2869 82.9678 66.2179 84.0328 66.2179 85.3478V123.327C66.2179 124.641 65.2869 125.707 64.1389 125.707Z" fill="url(#paint2_linear_110_1618)"/>
<path d="M9.26107 20.5608V166.421C9.26107 166.421 2.08407 69.7308 9.26107 20.5608Z" fill="#EAA10F"/>
<path d="M83.459 20.5608V166.421C83.459 166.421 90.636 69.7308 83.459 20.5608Z" fill="#EAA10F"/>
<path d="M0.463962 74.4398L11.202 71.8098L10.845 70.3528C10.358 68.3668 8.35397 67.1508 6.36797 67.6368L2.82296 68.5048C0.836963 68.9908 -0.379033 70.9958 0.106967 72.9818L0.463962 74.4398Z" fill="#232323"/>
<path d="M0.463867 74.4398L11.2019 71.8098L11.3889 72.5758C11.4289 72.7398 11.3289 72.9048 11.1649 72.9458L1.02087 75.4298C0.856874 75.4698 0.691871 75.3698 0.650871 75.2058L0.463867 74.4398Z" fill="#4D4D4D"/>
<path d="M12.5098 72.3138C13.1718 72.3208 13.2288 67.0968 12.5668 67.0888L11.3508 67.3108C10.7418 67.4218 10.3518 68.0228 10.4988 68.6248L11.2088 71.5248C11.3508 72.1018 11.9328 72.4558 12.5098 72.3138Z" fill="#232323"/>
<path d="M11.8228 70.2468C11.8228 70.9948 11.2158 71.6018 10.4678 71.6018C9.7198 71.6018 9.11279 70.9948 9.11279 70.2468C9.11279 69.4988 9.7188 68.8918 10.4678 68.8918C11.2168 68.8918 11.8228 69.4988 11.8228 70.2468Z" fill="#232323"/>
<path d="M92.1479 74.4398L81.4099 71.8098L81.7669 70.3528C82.2529 68.3668 84.2579 67.1508 86.2439 67.6368L89.7889 68.5048C91.7749 68.9908 92.9909 70.9958 92.5049 72.9818L92.1479 74.4398Z" fill="#232323"/>
<path d="M92.1479 74.4398L81.4099 71.8098L81.2219 72.5758C81.1819 72.7398 81.2819 72.9048 81.4459 72.9458L91.5909 75.4298C91.7549 75.4698 91.9199 75.3698 91.9609 75.2058L92.1479 74.4398Z" fill="#4D4D4D"/>
<path d="M80.1019 72.3138C79.1269 72.3248 79.0699 67.0998 80.0449 67.0888L81.2619 67.3108C81.8709 67.4218 82.2609 68.0228 82.1129 68.6248L81.4029 71.5248C81.2609 72.1018 80.6789 72.4558 80.1019 72.3138Z" fill="#232323"/>
<path d="M81.637 72.0848C82.3853 72.0848 82.992 71.4781 82.992 70.7298C82.992 69.9815 82.3853 69.3748 81.637 69.3748C80.8886 69.3748 80.282 69.9815 80.282 70.7298C80.282 71.4781 80.8886 72.0848 81.637 72.0848Z" fill="#232323"/>
<path d="M75.7758 62.0488L16.9448 61.8678V61.8588C27.2408 53.5038 65.4608 53.5038 75.7568 61.8498C75.7668 61.9758 75.7758 62.0488 75.7758 62.0488Z" fill="#232323"/>
<path opacity="0.2" d="M62.7581 82.2518H36.9131L39.7251 55.7988C46.0751 55.3908 52.7881 55.5808 58.8121 56.3608L62.7581 82.2518Z" fill="url(#paint3_linear_110_1618)"/>
<path opacity="0.5" d="M16.1658 28.3348C16.1658 36.0328 15.1418 48.4818 13.8788 48.4818C12.6158 48.4818 11.5918 36.0328 11.5918 28.3348C11.5918 20.6368 12.6158 20.6058 13.8788 20.6058C15.1418 20.6068 16.1658 20.6378 16.1658 28.3348Z" fill="url(#paint4_linear_110_1618)"/>
<path opacity="0.5" d="M80.5289 28.3348C80.5289 36.0328 79.6209 48.4818 78.5009 48.4818C77.3809 48.4818 76.4729 36.0328 76.4729 28.3348C76.4729 20.6368 77.3809 20.6058 78.5009 20.6058C79.6209 20.6068 80.5289 20.6378 80.5289 28.3348Z" fill="url(#paint5_linear_110_1618)"/>
<path d="M16.6938 61.5818C18.7648 59.8498 21.1588 58.8238 23.5838 57.8918C26.0288 57.0218 28.5428 56.3618 31.0848 55.8828C36.1728 54.9188 41.3588 54.6958 46.4958 54.7048C47.7808 54.7188 49.0648 54.7548 50.3488 54.8218C51.6338 54.8648 52.9168 54.9528 54.1998 55.0478C56.7648 55.2428 59.3328 55.4938 61.8748 55.9468C64.4188 56.3748 66.9509 56.9318 69.4249 57.7358C70.6519 58.1708 71.8748 58.6258 73.0398 59.2508C74.1818 59.8818 75.3998 60.5408 76.1218 61.8908L75.4278 62.2058C74.8488 61.3128 73.6818 60.6878 72.5818 60.1848C71.4588 59.6678 70.2538 59.3008 69.0508 58.9568C66.6338 58.2798 64.1438 57.8218 61.6368 57.4988C56.6278 56.8128 51.5488 56.5468 46.4728 56.5188C41.4018 56.4228 36.3368 56.6558 31.3488 57.4288C28.8538 57.7998 26.3898 58.3558 23.9898 59.0998C21.6038 59.8248 19.1948 60.7748 17.1948 62.1528L16.6938 61.5818Z" fill="#0C0C0C"/>
<path d="M11.8868 100.395C11.2528 100.395 10.7378 99.8808 10.7378 99.2458V92.9248C10.7378 92.2908 11.2518 91.7758 11.8868 91.7758C12.5208 91.7758 13.0358 92.2898 13.0358 92.9248V99.2458C13.0358 99.8808 12.5218 100.395 11.8868 100.395Z" fill="#E5E5E5"/>
<path d="M81.0111 100.395C80.3761 100.395 79.8621 99.8808 79.8621 99.2458V92.9248C79.8621 92.2908 80.3761 91.7758 81.0111 91.7758C81.6451 91.7758 82.1601 92.2898 82.1601 92.9248V99.2458C82.1601 99.8808 81.6451 100.395 81.0111 100.395Z" fill="#E5E5E5"/>
<path d="M11.8868 146.033C11.2528 146.033 10.7378 145.519 10.7378 144.884V138.563C10.7378 137.929 11.2518 137.414 11.8868 137.414C12.5208 137.414 13.0358 137.928 13.0358 138.563V144.884C13.0358 145.518 12.5218 146.033 11.8868 146.033Z" fill="#E5E5E5"/>
<path d="M81.0111 146.033C80.3761 146.033 79.8621 145.519 79.8621 144.884V138.563C79.8621 137.929 80.3761 137.414 81.0111 137.414C81.6451 137.414 82.1601 137.928 82.1601 138.563V144.884C82.1601 145.518 81.6451 146.033 81.0111 146.033Z" fill="#E5E5E5"/>
<path d="M47.2439 157.987H44.7219V171.607H47.2439V157.987Z" fill="#F0B631"/>
<path d="M12.177 168.072C11.797 167.982 11.417 167.932 11.047 167.932C10.307 167.932 9.58701 168.112 8.93701 168.432V169.282C8.93701 173.055 13.944 175.846 21.365 177.671C21.691 175.406 22.135 173.12 22.877 170.69L12.177 168.072Z" fill="#D11207"/>
<path d="M24.6872 171.132L22.8782 170.689C22.1352 173.119 21.6922 175.405 21.3662 177.67C23.1892 178.118 25.1512 178.51 27.2282 178.841C27.6782 178.301 28.0182 177.651 28.1982 176.921C28.8272 174.362 27.2472 171.762 24.6872 171.132Z" fill="#EF7911"/>
<path d="M80.5369 168.072C80.9169 167.982 81.2969 167.932 81.6669 167.932C82.4069 167.932 83.1269 168.112 83.7769 168.432V169.282C83.7769 173.055 78.7699 175.846 71.3489 177.671C71.0229 175.406 70.5789 173.12 69.8369 170.69L80.5369 168.072Z" fill="#D11207"/>
<path d="M68.027 171.132L69.836 170.689C70.579 173.119 71.022 175.405 71.348 177.67C69.525 178.118 67.563 178.51 65.486 178.841C65.036 178.301 64.696 177.651 64.516 176.921C63.887 174.362 65.467 171.762 68.027 171.132Z" fill="#EF7911"/>
<path d="M55.4801 85.1248H36.9131V91.7768H55.4801V85.1248Z" fill="#FBFBFB"/>
<path d="M38.9628 162.741H36.0688V165.635H38.9628V162.741Z" fill="#232323"/>
<path d="M44.75 162.741H41.856V165.635H44.75V162.741Z" fill="#232323"/>
<path d="M50.5368 162.741H47.6428V165.635H50.5368V162.741Z" fill="#232323"/>
<path d="M56.3249 162.741H53.4309V165.635H56.3249V162.741Z" fill="#232323"/>
<path d="M41.8569 165.635H38.9629V168.529H41.8569V165.635Z" fill="#232323"/>
<path d="M47.6438 165.635H44.7498V168.529H47.6438V165.635Z" fill="#232323"/>
<path d="M53.4309 165.635H50.5369V168.529H53.4309V165.635Z" fill="#232323"/>
<path d="M38.9628 43.5338H36.0688V46.4278H38.9628V43.5338Z" fill="#232323"/>
<path d="M44.75 43.5338H41.856V46.4278H44.75V43.5338Z" fill="#232323"/>
<path d="M50.5368 43.5338H47.6428V46.4278H50.5368V43.5338Z" fill="#232323"/>
<path d="M56.3249 43.5338H53.4309V46.4278H56.3249V43.5338Z" fill="#232323"/>
<path d="M41.8569 46.4268H38.9629V49.3208H41.8569V46.4268Z" fill="#232323"/>
<path d="M47.6438 46.4268H44.7498V49.3208H47.6438V46.4268Z" fill="#232323"/>
<path d="M53.4309 46.4268H50.5369V49.3208H53.4309V46.4268Z" fill="#232323"/>
<path d="M22.2569 12.5818L11.0869 17.5218V15.1218C11.0869 12.7018 13.1669 10.7018 16.6269 9.11179L17.1069 8.90179C18.3869 8.34179 19.8469 7.84178 21.4469 7.39178C22.3869 7.49178 23.2769 12.1418 22.2569 12.5818Z" fill="#FBFBFB"/>
<path d="M81.6069 15.2118V17.6118L70.4369 12.6718C69.4169 12.2318 70.3069 7.58181 71.2469 7.48181C71.3369 7.47181 71.4269 7.46179 71.5169 7.46179H71.5269C78.5009 8.91679 81.6069 12.4568 81.6069 15.2118Z" fill="#FBFBFB"/>
<path d="M37.639 35.0738H36.275C36.008 35.0738 35.874 34.9478 35.874 34.6948V33.5258H40.886C41.153 33.5258 41.287 33.6518 41.287 33.9048V35.0738H39.533V41.0268H38.039C37.772 41.0268 37.639 40.9008 37.639 40.6478V35.0738Z" fill="#232323"/>
<path d="M44.696 39.1868H43.181C43.137 39.5188 43.098 39.8478 43.062 40.1718C43.026 40.4968 43 40.7818 42.986 41.0268H41.536C41.435 41.0268 41.354 40.9938 41.292 40.9298C41.231 40.8648 41.2 40.7568 41.2 40.6048C41.2 40.5398 41.204 40.4718 41.211 40.3998C41.219 40.3278 41.229 40.2588 41.244 40.1938C41.438 39.0108 41.659 37.8738 41.904 36.7838C42.149 35.6938 42.459 34.6078 42.835 33.5258H44.795C44.939 33.5258 45.04 33.5618 45.098 33.6338C45.156 33.7058 45.199 33.7818 45.228 33.8608C45.553 34.8278 45.848 35.9228 46.116 37.1458C46.383 38.3688 46.621 39.6628 46.83 41.0258H45.271C45.04 41.0258 44.907 40.8958 44.87 40.6358L44.696 39.1868ZM43.938 34.9118C43.787 35.5178 43.666 36.0538 43.575 36.5188C43.485 36.9838 43.4 37.4258 43.32 37.8448H44.554C44.475 37.4258 44.39 36.9838 44.3 36.5188C44.21 36.0528 44.089 35.5178 43.938 34.9118Z" fill="#232323"/>
<path d="M47.835 41.0268C47.719 41.0268 47.633 40.9928 47.575 40.9238C47.518 40.8548 47.489 40.7668 47.489 40.6588C47.489 40.6228 47.492 40.5848 47.5 40.5448C47.507 40.5058 47.518 40.4638 47.532 40.4208C47.727 39.7858 47.954 39.2048 48.214 38.6778C48.474 38.1508 48.755 37.6418 49.058 37.1518C48.733 36.6108 48.434 36.0338 48.16 35.4198C47.885 34.8068 47.654 34.1748 47.467 33.5258H49.178C49.301 33.5258 49.392 33.5558 49.454 33.6178C49.515 33.6798 49.564 33.7708 49.6 33.8938C49.701 34.3058 49.811 34.6998 49.93 35.0798C50.049 35.4588 50.174 35.8138 50.304 36.1458C50.449 35.7998 50.591 35.4118 50.732 34.9818C50.872 34.5528 50.998 34.0668 51.106 33.5258H52.621C52.715 33.5258 52.794 33.5558 52.859 33.6178C52.924 33.6798 52.956 33.7708 52.956 33.8938C52.956 33.9518 52.949 34.0078 52.935 34.0618C52.92 34.1158 52.902 34.1718 52.881 34.2298C52.751 34.6338 52.567 35.0938 52.329 35.6098C52.091 36.1258 51.809 36.6548 51.485 37.1958C51.831 37.7298 52.154 38.3268 52.454 38.9878C52.753 39.6478 52.997 40.3278 53.184 41.0278H51.463C51.326 41.0278 51.227 40.9878 51.165 40.9088C51.104 40.8298 51.052 40.7068 51.008 40.5408C50.921 40.2088 50.815 39.8468 50.689 39.4528C50.562 39.0598 50.416 38.6568 50.25 38.2458C50.156 38.4768 50.064 38.7188 49.974 38.9708C49.884 39.2238 49.799 39.4738 49.72 39.7228C49.641 39.9718 49.57 40.2078 49.509 40.4318C49.447 40.6558 49.399 40.8538 49.363 41.0268H47.835Z" fill="#232323"/>
<path d="M54.4591 41.0268C54.1921 41.0268 54.0591 40.9008 54.0591 40.6478V33.5258H55.5531C55.8201 33.5258 55.9531 33.6518 55.9531 33.9048V41.0268H54.4591Z" fill="#232323"/>
<defs>
<linearGradient id="paint0_linear_110_1618" x1="66.6164" y1="19.979" x2="36.6815" y2="45.9879" gradientUnits="userSpaceOnUse">
<stop stop-color="white"/>
<stop offset="1" stop-color="#F0B631"/>
</linearGradient>
<linearGradient id="paint1_linear_110_1618" x1="28.5217" y1="141.771" x2="61.6317" y2="141.771" gradientUnits="userSpaceOnUse">
<stop stop-color="white"/>
<stop offset="0.1856" stop-color="#C4C4C4"/>
<stop offset="0.4039" stop-color="#858585"/>
<stop offset="0.5638" stop-color="#5E5E5E"/>
<stop offset="0.6468" stop-color="#4F4F4F"/>
<stop offset="0.7343" stop-color="#525252"/>
<stop offset="0.7916" stop-color="#5A5A5A"/>
<stop offset="0.8404" stop-color="#696969"/>
<stop offset="0.8843" stop-color="#7F7F7F"/>
<stop offset="0.925" stop-color="#9A9A9A"/>
<stop offset="0.9628" stop-color="#BBBBBB"/>
<stop offset="0.9986" stop-color="#E2E2E2"/>
<stop offset="1" stop-color="#E4E4E4"/>
</linearGradient>
<linearGradient id="paint2_linear_110_1618" x1="56.4785" y1="88.8704" x2="42.265" y2="110.597" gradientUnits="userSpaceOnUse">
<stop stop-color="white"/>
<stop offset="1" stop-color="#F0B631"/>
</linearGradient>
<linearGradient id="paint3_linear_110_1618" x1="36.9129" y1="68.9204" x2="62.7584" y2="68.9204" gradientUnits="userSpaceOnUse">
<stop stop-color="white"/>
<stop offset="0.1856" stop-color="#C4C4C4"/>
<stop offset="0.4039" stop-color="#858585"/>
<stop offset="0.5638" stop-color="#5E5E5E"/>
<stop offset="0.6468" stop-color="#4F4F4F"/>
<stop offset="0.7343" stop-color="#525252"/>
<stop offset="0.7916" stop-color="#5A5A5A"/>
<stop offset="0.8404" stop-color="#696969"/>
<stop offset="0.8843" stop-color="#7F7F7F"/>
<stop offset="0.925" stop-color="#9A9A9A"/>
<stop offset="0.9628" stop-color="#BBBBBB"/>
<stop offset="0.9986" stop-color="#E2E2E2"/>
<stop offset="1" stop-color="#E4E4E4"/>
</linearGradient>
<linearGradient id="paint4_linear_110_1618" x1="14.0919" y1="13.7386" x2="13.5989" y2="47.6662" gradientUnits="userSpaceOnUse">
<stop stop-color="white"/>
<stop offset="1" stop-color="#F0B631"/>
</linearGradient>
<linearGradient id="paint5_linear_110_1618" x1="78.7145" y1="13.7389" x2="78.2215" y2="47.6662" gradientUnits="userSpaceOnUse">
<stop stop-color="white"/>
<stop offset="1" stop-color="#F0B631"/>
</linearGradient>
</defs>
</svg>
