<svg width="94" height="177" viewBox="0 0 94 177" fill="none" xmlns="http://www.w3.org/2000/svg">
<path d="M11.6948 163.08V166.375C11.6948 169.257 13.1098 171.961 15.4878 173.589C16.3828 174.202 17.3358 174.744 18.3428 175.208C20.8938 176.382 23.6688 176.99 26.4778 176.99H65.0318C66.4128 176.99 67.7958 176.883 69.1468 176.597C71.4768 176.104 73.6148 175.222 75.5118 174.036C78.0308 172.46 79.5158 169.655 79.5158 166.684V163.081H11.6948V163.08Z" fill="#0094CC"/>
<path d="M66.6799 1.82825L56.4939 0.62625C49.42 -0.20875 42.2729 -0.20875 35.1989 0.62625L25.0129 1.82825C16.0599 2.88525 9.31494 10.4732 9.31494 19.4882V22.5512C9.31494 13.5362 16.0609 5.94823 25.0129 4.89123L35.1989 3.68924C42.2729 2.85424 49.42 2.85424 56.4939 3.68924L66.6799 4.89123C75.6329 5.94823 82.3779 13.5362 82.3779 22.5512V19.4882C82.3789 10.4742 75.6329 2.88525 66.6799 1.82825Z" fill="#0091D0"/>
<path d="M67.987 4.49121L57.162 3.21322C49.645 2.32622 42.049 2.32622 34.531 3.21322L23.7059 4.49121C14.1919 5.61421 7.02295 13.6782 7.02295 23.2582V151.1V154.355C7.02295 161.95 11.4429 168.851 18.3429 172.027C20.8939 173.201 23.669 173.809 26.478 173.809H45.847H65.037C66.421 173.809 67.8069 173.7 69.1609 173.413C78.4099 171.449 84.6709 163.394 84.6709 154.355V151.1V23.2592C84.6689 13.6792 77.501 5.61421 67.987 4.49121Z" fill="#00A6E6"/>
<path d="M24.9039 7.49023C19.8409 8.46323 15.5439 11.4222 12.8019 15.4912C12.2399 16.3252 12.3369 17.4442 13.0079 18.1922C13.0599 18.2502 13.1129 18.3082 13.1649 18.3662C14.2269 19.5332 16.0329 19.7052 17.2349 18.6842C20.2719 16.1072 23.5429 11.3112 24.9039 7.49023Z" fill="#A6DBF7"/>
<path d="M22.0852 105.813V94.0392C22.0852 88.6152 21.2481 83.2242 19.6041 78.0552L12.9441 57.1172C12.7871 56.6222 12.0562 56.7352 12.0562 57.2552V100.484C12.0562 103.287 13.8941 105.758 16.5781 106.565L19.7792 107.527C20.9282 107.873 22.0852 107.013 22.0852 105.813Z" fill="#002E3F"/>
<path d="M12.0571 116.013V144.213C12.0571 145.755 13.6601 146.774 15.0571 146.12L20.8731 143.393C21.6131 143.046 22.0851 142.303 22.0851 141.486V113.615C22.0851 113.016 21.6331 112.512 21.0371 112.448L16.5671 111.964C14.1591 111.703 12.0571 113.59 12.0571 116.013Z" fill="#002E3F"/>
<path d="M66.728 7.49023C71.791 8.46323 76.088 11.4222 78.83 15.4912C79.392 16.3252 79.295 17.4442 78.624 18.1922C78.572 18.2502 78.519 18.3082 78.467 18.3662C77.405 19.5332 75.599 19.7052 74.397 18.6842C71.36 16.1072 68.089 11.3112 66.728 7.49023Z" fill="#A6DBF7"/>
<path d="M67.8202 152.952C53.2692 155.583 38.3642 155.583 23.8122 152.952L20.2652 163.259C19.9142 164.278 20.6022 165.358 21.6742 165.471L31.7332 166.534C41.0952 167.524 50.5362 167.524 59.8982 166.534L69.9572 165.471C71.0282 165.358 71.7162 164.277 71.3662 163.259L67.8202 152.952Z" fill="#002E3F"/>
<path d="M69.5469 105.813V94.0392C69.5469 88.6152 70.3839 83.2242 72.0279 78.0552L78.6879 57.1172C78.8449 56.6222 79.5759 56.7352 79.5759 57.2552V100.484C79.5759 103.287 77.7379 105.758 75.0539 106.565L71.8529 107.527C70.7039 107.873 69.5469 107.013 69.5469 105.813Z" fill="#002E3F"/>
<path d="M79.5749 116.013V144.213C79.5749 145.755 77.9719 146.774 76.5749 146.12L70.7589 143.393C70.0189 143.046 69.5469 142.303 69.5469 141.486V113.615C69.5469 113.016 69.9989 112.512 70.5949 112.448L75.0649 111.964C77.4729 111.703 79.5749 113.59 79.5749 116.013Z" fill="#002E3F"/>
<path d="M62.3551 11.4743C51.4671 9.00629 40.1651 9.00629 29.2781 11.4743C21.2161 13.3013 15.4941 20.4663 15.4941 28.7323V53.4823L45.8171 50.5883L76.1401 53.4823V28.7323C76.1391 20.4663 70.4161 13.3023 62.3551 11.4743Z" fill="#32BDEF"/>
<path d="M56.8769 5.36926C53.2199 4.93726 49.4989 4.71826 45.8159 4.71826C42.1329 4.71826 38.4119 4.93726 34.7549 5.36926L32.0429 5.68927C30.2019 5.90627 28.8149 7.46628 28.8149 9.32028V9.35428C34.3849 8.09328 40.1039 7.45328 45.8149 7.45328C51.4019 7.45328 56.9969 8.06928 62.4529 9.27728C62.4529 7.42428 61.0659 5.86327 59.2249 5.64627L56.8769 5.36926Z" fill="#004D65"/>
<path d="M34.47 79.8573L27.4 80.6323C25.667 80.8223 24.354 82.2863 24.354 84.0293V144.709C24.354 146.895 25.926 148.765 28.08 149.14C39.815 151.184 51.816 151.184 63.551 149.14C65.705 148.765 67.277 146.895 67.277 144.709V84.0293C67.277 82.2863 65.965 80.8213 64.232 80.6323L57.162 79.8573C49.621 79.0303 42.011 79.0303 34.47 79.8573Z" fill="#00B0EA"/>
<path d="M24.355 144.512V144.709C24.355 146.895 25.927 148.765 28.081 149.14C39.816 151.184 51.817 151.184 63.552 149.14C65.706 148.765 67.278 146.895 67.278 144.709V144.512H24.355Z" fill="#3BBEEF"/>
<path d="M9.13499 62.9172L0 64.2733C0 64.8893 0.546998 65.3602 1.156 65.2702L8.241 64.2182C8.754 64.1422 9.13499 63.7013 9.13499 63.1823V62.9172Z" fill="#004D65"/>
<path d="M9.13499 62.9173L0 64.2733V64.0793C0 62.4593 1.18699 61.0823 2.78999 60.8443L7.27299 60.1783C8.254 60.0323 9.13499 60.7923 9.13499 61.7843V62.9173Z" fill="#7CCDF3"/>
<path d="M10.5858 62.9173H9.13477V61.8103H10.5858C10.7908 61.8103 10.9558 61.9763 10.9558 62.1813V62.5473C10.9558 62.7513 10.7908 62.9173 10.5858 62.9173Z" fill="#27BCEE"/>
<path d="M84.5461 62.9172L93.6812 64.2733C93.6812 64.8893 93.1341 65.3602 92.5251 65.2702L85.4402 64.2182C84.9272 64.1422 84.5461 63.7013 84.5461 63.1823V62.9172Z" fill="#004D65"/>
<path d="M84.5461 62.9173L93.6812 64.2733V64.0793C93.6812 62.4593 92.4941 61.0823 90.8911 60.8443L86.4081 60.1783C85.4271 60.0323 84.5461 60.7923 84.5461 61.7843V62.9173Z" fill="#7CCDF3"/>
<path d="M83.0951 62.9173H84.5461V61.8103H83.0951C82.8901 61.8103 82.7241 61.9763 82.7241 62.1813V62.5473C82.7241 62.7513 82.8901 62.9173 83.0951 62.9173Z" fill="#27BCEE"/>
<path d="M76.0751 27.2542C76.0611 27.0852 76.0341 26.9202 76.0151 26.7532C75.9801 26.4362 75.9441 26.1192 75.8921 25.8072C75.8581 25.6062 75.8121 25.4092 75.7721 25.2112C75.7171 24.9392 75.6631 24.6672 75.5951 24.3992C75.5401 24.1842 75.4751 23.9722 75.4131 23.7602C75.3421 23.5172 75.2711 23.2752 75.1901 23.0372C75.1141 22.8132 75.0291 22.5932 74.9441 22.3732C74.8601 22.1552 74.7751 21.9382 74.6821 21.7252C74.5831 21.4962 74.4771 21.2692 74.3681 21.0452C74.2751 20.8522 74.1791 20.6612 74.0791 20.4722C73.9551 20.2382 73.8261 20.0062 73.6911 19.7782C73.5931 19.6112 73.4911 19.4472 73.3881 19.2842C73.2361 19.0452 73.0811 18.8082 72.9181 18.5762C72.8211 18.4382 72.7201 18.3042 72.6191 18.1692C72.4361 17.9242 72.2501 17.6802 72.0541 17.4452C71.9681 17.3412 71.8761 17.2412 71.7881 17.1382C71.5661 16.8832 71.3411 16.6302 71.1051 16.3882C71.0471 16.3282 70.9851 16.2732 70.9271 16.2142C69.0541 14.3482 66.7581 12.8872 64.1611 12.0012L67.8241 48.0072L22.6851 48.2622L27.2721 12.0762C24.2601 13.1442 21.6591 14.9872 19.6711 17.3402C19.6341 17.3842 19.5951 17.4262 19.5581 17.4702C19.3371 17.7372 19.1281 18.0152 18.9231 18.2942C18.8481 18.3962 18.7711 18.4962 18.6991 18.6002C18.5231 18.8512 18.3571 19.1102 18.1931 19.3712C18.1041 19.5132 18.0151 19.6552 17.9301 19.8002C17.7881 20.0412 17.6541 20.2872 17.5231 20.5362C17.4311 20.7112 17.3421 20.8872 17.2561 21.0662C17.1431 21.2992 17.0351 21.5352 16.9331 21.7732C16.8451 21.9772 16.7631 22.1842 16.6831 22.3922C16.5961 22.6172 16.5111 22.8442 16.4331 23.0732C16.3541 23.3052 16.2851 23.5412 16.2161 23.7772C16.1531 23.9922 16.0881 24.2072 16.0331 24.4262C15.9671 24.6892 15.9131 24.9572 15.8591 25.2252C15.8181 25.4252 15.7731 25.6242 15.7391 25.8272C15.6871 26.1362 15.6521 26.4502 15.6171 26.7642C15.5981 26.9322 15.5711 27.0982 15.5571 27.2672C15.5171 27.7532 15.4941 28.2442 15.4941 28.7392V53.4892L45.8171 50.5952L76.1401 53.4892V28.7392C76.1391 28.2352 76.1161 27.7422 76.0751 27.2542Z" fill="#00B0EA"/>
<path d="M29.9731 46.6922L18.5951 49.1352C16.3981 49.6072 15.0411 51.8182 15.6161 53.9902L21.5641 76.4752C21.9341 77.8742 23.2871 78.7782 24.7211 78.5862L30.5351 77.8062C40.6981 76.4422 50.9971 76.4422 61.1601 77.8062L66.9741 78.5862C68.4081 78.7782 69.7611 77.8742 70.1311 76.4752L76.0791 53.9902C76.6541 51.8182 75.2961 49.6062 73.1001 49.1352L61.7221 46.6922C51.2561 44.4462 40.4361 44.4462 29.9731 46.6922Z" fill="#002E3F"/>
</svg>
