<svg width="94" height="189" viewBox="0 0 94 189" fill="none" xmlns="http://www.w3.org/2000/svg">
<path d="M67.4199 185.069C79.5189 183.242 83.8119 180.272 83.8119 178.283L86.1839 170.677C86.1839 170.677 88.5559 176.172 88.5559 178.283C88.5559 182.887 83.3129 186.297 72.9539 188.443C70.3849 188.976 67.8549 187.412 67.4199 185.069Z" fill="#232323"/>
<path d="M28.377 185.32C27.988 187.688 25.462 189.263 22.86 188.781C11.49 186.675 5.52002 183.079 5.52002 178.284C5.52002 176.173 7.89202 170.353 7.89202 170.353L10.264 178.284C10.264 180.582 15.865 183.648 28.377 185.315V185.32Z" fill="#232323"/>
<path d="M11.5 177.823C12.85 179.92 25.789 182.778 46.987 182.778C68.185 182.778 81.124 179.92 82.474 177.823V115.024H11.5V177.823Z" fill="#3A4242"/>
<path d="M84.975 110.242H9C7.619 110.242 6.5 111.312 6.5 112.633V177.937C6.5 181.635 10.928 184.107 20.436 185.716C27.465 186.905 36.895 187.561 46.988 187.561C57.081 187.561 66.511 186.906 73.54 185.716C83.047 184.107 87.476 181.635 87.476 177.937V112.633C87.475 111.312 86.356 110.242 84.975 110.242ZM82.475 177.823C81.125 179.92 68.186 182.778 46.988 182.778C25.79 182.778 12.851 179.92 11.501 177.823V115.024H82.476L82.475 177.823Z" fill="#879DA0"/>
<g opacity="0.3">
<path d="M16.2771 176.527C16.1261 176.496 16.0501 176.481 15.8991 176.45C15.1231 176.291 14.4961 175.496 14.4961 174.683C14.4961 159.103 14.4961 143.522 14.4961 127.942C14.4961 127.129 15.1311 126.47 15.9131 126.47C16.0661 126.47 16.1421 126.47 16.2941 126.47C17.0771 126.47 17.7111 127.138 17.7111 127.961C17.7021 143.745 17.6931 159.53 17.6841 175.314C17.6831 176.138 17.0531 176.685 16.2771 176.527Z" fill="#232323"/>
<path d="M21.7551 177.536C21.6031 177.511 21.5271 177.498 21.3751 177.473C20.5961 177.342 19.9651 176.556 19.9661 175.725C19.9801 159.808 19.9941 143.891 20.0071 127.974C20.0081 127.143 20.6431 126.47 21.4261 126.47C21.5791 126.47 21.6551 126.47 21.8071 126.47C22.5901 126.47 23.2241 127.15 23.2231 127.99C23.2051 144.075 23.1871 160.159 23.1681 176.244C23.1671 177.083 22.5341 177.665 21.7551 177.536Z" fill="#232323"/>
<path d="M27.2552 178.346C27.1032 178.326 27.0262 178.317 26.8742 178.296C26.0922 178.193 25.4592 177.418 25.4602 176.574C25.4802 160.383 25.5002 144.191 25.5202 128C25.5212 127.155 26.1562 126.47 26.9392 126.47C27.0922 126.47 27.1682 126.47 27.3202 126.47C28.1032 126.47 28.7362 127.16 28.7352 128.012C28.7142 144.335 28.6942 160.657 28.6732 176.98C28.6732 177.831 28.0382 178.447 27.2552 178.346Z" fill="#232323"/>
<path d="M32.7741 178.956C32.6211 178.942 32.5451 178.935 32.3921 178.92C31.6081 178.846 30.9731 178.085 30.9741 177.229C30.9941 160.826 31.0141 144.423 31.0341 128.019C31.0351 127.163 31.6701 126.469 32.4531 126.469C32.6061 126.469 32.6821 126.469 32.8341 126.469C33.6171 126.469 34.2511 127.167 34.2501 128.028C34.2321 144.526 34.2151 161.024 34.1971 177.522C34.1951 178.383 33.5581 179.029 32.7741 178.956Z" fill="#232323"/>
<path d="M38.8692 179.399C38.7162 179.391 38.6392 179.387 38.4862 179.378C37.7002 179.335 37.0642 178.592 37.0642 177.728C37.0792 161.164 37.0942 144.599 37.1082 128.035C37.1092 127.171 37.7442 126.47 38.5272 126.47C38.6792 126.47 38.7562 126.47 38.9082 126.47C39.6912 126.47 40.3252 127.173 40.3242 128.04C40.3132 144.659 40.3032 161.278 40.2922 177.897C40.2932 178.764 39.6552 179.44 38.8692 179.399Z" fill="#232323"/>
<path d="M44.4083 179.591C44.2553 179.588 44.1783 179.587 44.0253 179.584C43.2383 179.569 42.6013 178.846 42.6013 177.978C42.6083 161.333 42.6153 144.688 42.6223 128.043C42.6223 127.175 43.2573 126.47 44.0403 126.47C44.1923 126.47 44.2693 126.47 44.4213 126.47C45.2043 126.47 45.8383 127.175 45.8383 128.044C45.8363 144.707 45.8343 161.37 45.8323 178.034C45.8333 178.903 45.1953 179.604 44.4083 179.591Z" fill="#232323"/>
<path d="M49.9502 179.584C49.7972 179.587 49.7202 179.588 49.5672 179.591C48.7802 179.604 48.1422 178.903 48.1422 178.034C48.1402 161.371 48.1382 144.708 48.1362 128.044C48.1362 127.175 48.7702 126.47 49.5532 126.47C49.7062 126.47 49.7822 126.47 49.9342 126.47C50.7172 126.47 51.3522 127.174 51.3522 128.043C51.3592 144.688 51.3662 161.333 51.3732 177.978C51.3742 178.846 50.7372 179.569 49.9502 179.584Z" fill="#232323"/>
<path d="M55.4892 179.378C55.3362 179.386 55.2592 179.391 55.1062 179.399C54.3202 179.44 53.6822 178.765 53.6812 177.897C53.6702 161.278 53.6602 144.659 53.6492 128.04C53.6482 127.173 54.2832 126.47 55.0652 126.47C55.2182 126.47 55.2942 126.47 55.4462 126.47C56.2292 126.47 56.8642 127.171 56.8652 128.035C56.8802 144.599 56.8952 161.164 56.9092 177.728C56.9122 178.592 56.2762 179.335 55.4892 179.378Z" fill="#232323"/>
<path d="M61.5831 178.921C61.4301 178.935 61.3541 178.943 61.2011 178.957C60.4161 179.03 59.7791 178.384 59.7781 177.523C59.7601 161.025 59.7431 144.527 59.7251 128.029C59.7241 127.168 60.3581 126.47 61.1411 126.47C61.2931 126.47 61.3701 126.47 61.5221 126.47C62.3051 126.47 62.9401 127.164 62.9411 128.02C62.9611 144.423 62.9811 160.827 63.0011 177.23C63.0021 178.085 62.3681 178.846 61.5831 178.921Z" fill="#232323"/>
<path d="M67.101 178.296C66.949 178.316 66.872 178.326 66.72 178.346C65.938 178.447 65.302 177.832 65.301 176.98C65.28 160.657 65.26 144.335 65.239 128.012C65.238 127.16 65.872 126.47 66.654 126.47C66.806 126.47 66.883 126.47 67.035 126.47C67.818 126.47 68.453 127.155 68.454 128C68.474 144.191 68.494 160.383 68.514 176.574C68.516 177.419 67.883 178.193 67.101 178.296Z" fill="#232323"/>
<path d="M72.6 177.473C72.448 177.499 72.372 177.511 72.22 177.536C71.441 177.665 70.807 177.083 70.806 176.244C70.788 160.159 70.77 144.075 70.751 127.99C70.75 127.151 71.384 126.47 72.167 126.47C72.319 126.47 72.396 126.47 72.548 126.47C73.331 126.47 73.966 127.143 73.967 127.974C73.981 143.891 73.995 159.808 74.008 175.725C74.01 176.556 73.379 177.342 72.6 177.473Z" fill="#232323"/>
<path d="M78.0762 176.45C77.9252 176.481 77.8492 176.497 77.6982 176.527C76.9222 176.684 76.2922 176.138 76.2912 175.314C76.2822 159.53 76.2732 143.745 76.2642 127.961C76.2632 127.137 76.8982 126.47 77.6802 126.47C77.8332 126.47 77.9092 126.47 78.0612 126.47C78.8442 126.47 79.4782 127.129 79.4782 127.942C79.4782 143.522 79.4782 159.103 79.4782 174.683C79.4802 175.496 78.8522 176.291 78.0762 176.45Z" fill="#232323"/>
</g>
<path d="M11.2451 130.889H11.9751C14.2541 130.889 16.1021 132.737 16.1021 135.016V155.05C16.1021 157.329 14.2541 159.177 11.9751 159.177H11.2451V130.889Z" fill="#546D70"/>
<path d="M82.846 159.178H82.116C79.837 159.178 77.989 157.33 77.989 155.051V135.017C77.989 132.737 79.837 130.89 82.116 130.89H82.846V159.178Z" fill="#546D70"/>
<path d="M86.1031 19.9694L8.04308 20.2154L8.01908 13.3454C7.95808 -4.28361 86.0181 -4.52961 86.0781 13.0994L86.1031 19.9694Z" fill="#484D51"/>
<path d="M84.4599 24.6034H9.61792V123.575H84.4599V24.6034Z" fill="#71898E"/>
<path d="M84.4599 19.7094H9.61792V13.6134C9.61792 -2.02762 84.4599 -2.02762 84.4599 13.6134V19.7094Z" fill="#71898E"/>
<path d="M82.316 19.7094H11.761V14.4654C11.761 1.00837 82.315 1.00837 82.315 14.4654V19.7094H82.316Z" fill="#3E4849"/>
<path d="M29.9891 7.30339L25.4351 10.0154V3.83139C25.4351 3.23439 25.8451 2.75039 26.3511 2.75039L29.0731 1.88239C29.5791 1.88239 29.9891 2.36639 29.9891 2.96239V7.30339Z" fill="#FBFBFB"/>
<path d="M63.9719 7.30339L68.5259 10.0154V3.83139C68.5259 3.23439 68.1159 2.75039 67.6099 2.75039L64.8879 1.88239C64.3819 1.88239 63.9719 2.36639 63.9719 2.96239V7.30339Z" fill="#FBFBFB"/>
<path d="M84.4599 24.9174H9.61792V19.6664C9.61792 6.19241 84.4599 6.19241 84.4599 19.6664V24.9174Z" fill="#71898E"/>
<path d="M76.455 59.3484H17.624L23.085 13.1964C23.23 11.4004 24.428 9.8734 26.36 8.6234C35.114 2.9314 58.946 2.9314 67.709 8.6144C69.641 9.8644 70.848 11.3914 70.993 13.1964L76.455 59.3484Z" fill="#546D70"/>
<path d="M72.4271 59.3484H21.6521L26.3601 8.62437C35.1141 2.93237 58.9461 2.93237 67.7091 8.61537L72.4271 59.3484Z" fill="#71898E"/>
<path opacity="0.3" d="M72.4271 59.3484H21.6521L26.3601 8.62437C35.1141 2.93237 58.9461 2.93237 67.7091 8.61537L72.4271 59.3484Z" fill="url(#paint0_linear_110_1734)"/>
<path d="M33.619 55.2444V17.2394L30.314 55.2444H33.619Z" fill="#546D70"/>
<path d="M60.342 55.2444V17.2394L63.647 55.2444H60.342Z" fill="#546D70"/>
<path d="M79.0129 53.5474V111.174C79.0129 118.074 15.0569 118.074 15.0569 111.174V53.5474C15.0569 52.3244 15.9909 51.2534 17.6239 50.3224C21.8329 47.9404 30.6869 46.5274 40.4029 46.0894C46.7529 45.8044 53.4659 45.9374 59.4899 46.4824C66.8109 47.1414 73.0979 48.4214 76.4359 50.3154C78.0789 51.2474 79.0129 52.3254 79.0129 53.5474Z" fill="#1B3338"/>
<path d="M78.683 52.1224L15.396 51.9484V51.9394C26.472 43.9484 67.587 43.9484 78.663 51.9304C78.673 52.0534 78.683 52.1224 78.683 52.1224Z" fill="#232323"/>
<path opacity="0.2" d="M63.437 71.4464H37.592L40.404 46.1444C46.754 45.7534 53.467 45.9364 59.491 46.6824L63.437 71.4464Z" fill="url(#paint1_linear_110_1734)"/>
<path d="M15.491 51.8654C17.694 50.1034 20.238 49.0604 22.817 48.1124C25.417 47.2274 28.09 46.5564 30.793 46.0694C36.203 45.0884 41.717 44.8624 47.18 44.8714C48.546 44.8854 49.912 44.9214 51.277 44.9894C52.643 45.0324 54.008 45.1224 55.372 45.2194C58.099 45.4174 60.83 45.6724 63.533 46.1344C66.238 46.5694 68.931 47.1364 71.561 47.9544C72.866 48.3964 74.166 48.8594 75.405 49.4954C76.619 50.1374 77.914 50.8074 78.682 52.1804L77.945 52.5014C77.33 51.5934 76.088 50.9574 74.919 50.4464C73.725 49.9204 72.444 49.5474 71.165 49.1974C68.595 48.5084 65.947 48.0424 63.282 47.7144C57.956 47.0174 52.555 46.7454 47.158 46.7174C41.766 46.6194 36.38 46.8574 31.077 47.6424C28.424 48.0194 25.805 48.5854 23.252 49.3414C20.714 50.0794 18.154 51.0444 16.027 52.4464L15.491 51.8654Z" fill="#0C0C0C"/>
<path d="M24.486 69.5414L17.626 50.3584C15.816 49.6324 13.851 52.1254 15.06 55.1084L21.651 72.4614L24.486 69.5414Z" fill="#546D70"/>
<path d="M12.5021 109.46C11.3001 109.46 11.3001 113.907 12.5021 113.907L22.9401 112.915V109.135L12.5021 109.46Z" fill="#546D70"/>
<path d="M81.9209 109.46C83.1229 109.46 83.1229 113.907 81.9209 113.907L71.4819 112.915V109.135L81.9209 109.46Z" fill="#546D70"/>
<path d="M69.218 69.5414L76.078 50.3584C77.888 49.6324 79.853 52.1254 78.644 55.1084L72.053 72.4614L69.218 69.5414Z" fill="#546D70"/>
<path d="M69.7671 114.11C53.9271 115.27 38.7061 115.387 24.3091 114.11C22.8411 114.11 21.6511 113.003 21.6511 111.638V72.1914C21.6511 70.8264 22.8411 69.7194 24.3091 69.7194C38.7061 68.1914 53.9281 68.3304 69.7671 69.7194C71.2351 69.7194 72.4251 70.8264 72.4251 72.1914V111.638C72.4251 113.003 71.2351 114.11 69.7671 114.11Z" fill="#879DA0"/>
<path opacity="0.3" d="M64.8169 113.009C52.4269 114.077 40.5209 114.185 29.2599 113.009C28.1119 113.009 27.1809 111.99 27.1809 110.733V74.4074C27.1809 73.1504 28.1119 72.1314 29.2599 72.1314C40.5209 70.7244 52.4279 70.8524 64.8169 72.1314C65.9649 72.1314 66.8959 73.1504 66.8959 74.4074V110.733C66.8959 111.99 65.9649 113.009 64.8169 113.009Z" fill="url(#paint2_linear_110_1734)"/>
<path d="M9.61792 19.6664V159.178C9.61792 159.178 2.37792 66.6954 9.61792 19.6664Z" fill="#546D70"/>
<path d="M84.46 19.6664V159.178C84.46 159.178 91.7 66.6954 84.46 19.6664Z" fill="#546D70"/>
<path d="M35.4269 108.183H35.2029C34.0059 108.183 33.0349 107.213 33.0349 106.016V76.5894C33.0349 75.3924 34.0049 74.4214 35.2029 74.4214H35.4269C36.6239 74.4214 37.5939 75.3914 37.5939 76.5894V106.016C37.5949 107.213 36.6239 108.183 35.4269 108.183Z" fill="#71898E"/>
<path d="M43.2428 108.183H43.0188C41.8218 108.183 40.8508 107.213 40.8508 106.016V76.5894C40.8508 75.3924 41.8208 74.4214 43.0188 74.4214H43.2428C44.4398 74.4214 45.4108 75.3914 45.4108 76.5894V106.016C45.4098 107.213 44.4398 108.183 43.2428 108.183Z" fill="#71898E"/>
<path d="M51.058 108.183H50.834C49.637 108.183 48.666 107.213 48.666 106.016V76.5894C48.666 75.3924 49.636 74.4214 50.834 74.4214H51.058C52.255 74.4214 53.226 75.3914 53.226 76.5894V106.016C53.226 107.213 52.256 108.183 51.058 108.183Z" fill="#71898E"/>
<path d="M58.8739 108.183H58.6499C57.4529 108.183 56.4819 107.213 56.4819 106.016V76.5894C56.4819 75.3924 57.4519 74.4214 58.6499 74.4214H58.8739C60.0709 74.4214 61.0419 75.3914 61.0419 76.5894V106.016C61.0419 107.213 60.0709 108.183 58.8739 108.183Z" fill="#71898E"/>
<path d="M28.869 77.5314H27.322V108.584H28.869V77.5314Z" fill="#E5E5E5"/>
<path d="M26.0071 79.0004H30.1841C30.1841 79.0004 29.9521 73.8244 28.0951 73.8244C26.2391 73.8254 26.0071 79.0004 26.0071 79.0004Z" fill="#232323"/>
<path d="M30.1841 104.738H26.0071C26.0071 104.738 26.2391 109.913 28.0961 109.913C29.9521 109.914 30.1841 104.738 30.1841 104.738Z" fill="#232323"/>
<path d="M66.299 77.5314H64.752V108.584H66.299V77.5314Z" fill="#E5E5E5"/>
<path d="M63.437 79.0004H67.614C67.614 79.0004 67.382 73.8244 65.525 73.8244C63.669 73.8254 63.437 79.0004 63.437 79.0004Z" fill="#232323"/>
<path d="M67.614 104.738H63.437C63.437 104.738 63.669 109.913 65.526 109.913C67.382 109.914 67.614 104.738 67.614 104.738Z" fill="#232323"/>
<path d="M1.14292 71.2004L11.8809 68.6854L11.5239 67.2924C11.0379 65.3924 9.03292 64.2294 7.04692 64.6944L3.50193 65.5244C1.51593 65.9894 0.299922 67.9074 0.785922 69.8074L1.14292 71.2004Z" fill="#232323"/>
<path d="M1.14282 71.2004L11.8808 68.6854L12.0688 69.4174C12.1088 69.5744 12.0088 69.7324 11.8448 69.7714L1.69982 72.1474C1.53582 72.1854 1.37082 72.0894 1.32982 71.9324L1.14282 71.2004Z" fill="#4D4D4D"/>
<path d="M13.1889 69.1674C13.8499 69.1744 13.9079 64.1774 13.2459 64.1704L12.0299 64.3834C11.4209 64.4894 11.0309 65.0644 11.1789 65.6404L11.8889 68.4144C12.0299 68.9644 12.6119 69.3024 13.1889 69.1674Z" fill="#232323"/>
<path d="M11.147 68.4854C11.8953 68.4854 12.502 67.9052 12.502 67.1894C12.502 66.4737 11.8953 65.8934 11.147 65.8934C10.3986 65.8934 9.79199 66.4737 9.79199 67.1894C9.79199 67.9052 10.3986 68.4854 11.147 68.4854Z" fill="#232323"/>
<path d="M92.8269 71.2004L82.0889 68.6854L82.4459 67.2924C82.9319 65.3924 84.9369 64.2294 86.9229 64.6944L90.4679 65.5244C92.4539 65.9894 93.6699 67.9074 93.1839 69.8074L92.8269 71.2004Z" fill="#232323"/>
<path d="M92.8269 71.2004L82.0889 68.6854L81.9009 69.4174C81.8609 69.5744 81.9609 69.7324 82.1249 69.7714L92.2689 72.1474C92.4329 72.1854 92.5979 72.0894 92.6389 71.9324L92.8269 71.2004Z" fill="#4D4D4D"/>
<path d="M80.7799 69.1674C79.8049 69.1774 79.7479 64.1804 80.7229 64.1704L81.9399 64.3834C82.5489 64.4894 82.9389 65.0644 82.7909 65.6404L82.0809 68.4144C81.9399 68.9644 81.3569 69.3024 80.7799 69.1674Z" fill="#232323"/>
<path d="M82.3159 68.9484C83.0643 68.9484 83.6709 68.3682 83.6709 67.6524C83.6709 66.9366 83.0643 66.3564 82.3159 66.3564C81.5676 66.3564 80.9609 66.9366 80.9609 67.6524C80.9609 68.3682 81.5676 68.9484 82.3159 68.9484Z" fill="#232323"/>
<path d="M11.4171 49.3284C12.0975 49.3284 12.6491 48.0569 12.6491 46.4884C12.6491 44.9199 12.0975 43.6484 11.4171 43.6484C10.7366 43.6484 10.1851 44.9199 10.1851 46.4884C10.1851 48.0569 10.7366 49.3284 11.4171 49.3284Z" fill="#546D70"/>
<path d="M11.8249 46.4884C11.8249 47.7274 11.5219 48.7314 11.1479 48.7314C10.7739 48.7314 10.4709 47.7274 10.4709 46.4884C10.4709 45.2494 10.7739 44.2454 11.1479 44.2454C11.5219 44.2454 11.8249 45.2494 11.8249 46.4884Z" fill="#EF7911"/>
<path opacity="0.2" d="M12.4992 46.4414C12.4992 47.1004 12.2562 47.6344 12.1322 47.6344C12.0082 47.6344 12.0512 47.1004 12.0512 46.4414C12.0512 45.7824 12.0082 45.2484 12.1322 45.2484C12.2562 45.2484 12.4992 45.7824 12.4992 46.4414Z" fill="#FBFBFB"/>
<path d="M18.1669 19.5344C15.2229 20.7944 12.3509 20.7784 11.7509 19.4974C11.1519 18.2164 13.0529 16.1574 15.9969 14.8964C18.9409 13.6364 21.8129 13.6524 22.4129 14.9334C23.0119 16.2144 21.1109 18.2734 18.1669 19.5344Z" fill="#546D70"/>
<path d="M17.441 17.9824C15.116 18.9774 12.963 19.2144 12.634 18.5104C12.305 17.8064 13.923 16.4294 16.248 15.4334C18.573 14.4384 20.726 14.2014 21.055 14.9054C21.384 15.6094 19.766 16.9864 17.441 17.9824Z" fill="#FBFBFB"/>
<path opacity="0.2" d="M18.1219 19.2134C16.8849 19.7424 15.6679 19.7144 15.5589 19.4814C15.4499 19.2484 16.4899 18.8994 17.7269 18.3704C18.9639 17.8404 19.9289 17.3314 20.0379 17.5644C20.1469 17.7964 19.3589 18.6834 18.1219 19.2134Z" fill="#FBFBFB"/>
<path d="M76.0669 19.5344C79.0109 20.7944 81.8829 20.7784 82.4829 19.4974C83.0819 18.2164 81.1809 16.1574 78.2369 14.8964C75.2929 13.6364 72.4209 13.6524 71.8209 14.9334C71.2229 16.2144 73.1229 18.2734 76.0669 19.5344Z" fill="#546D70"/>
<path d="M76.7939 17.9824C79.1199 18.9774 81.2719 19.2144 81.6009 18.5104C81.9299 17.8064 80.3119 16.4294 77.9869 15.4334C75.6609 14.4384 73.5089 14.2014 73.1799 14.9054C72.8499 15.6094 74.4679 16.9864 76.7939 17.9824Z" fill="#FBFBFB"/>
<path opacity="0.2" d="M76.1121 19.2134C77.3491 19.7424 78.5661 19.7144 78.6751 19.4814C78.7841 19.2484 77.7441 18.8994 76.5071 18.3704C75.2701 17.8404 74.3051 17.3314 74.1961 17.5644C74.0871 17.7964 74.8761 18.6834 76.1121 19.2134Z" fill="#FBFBFB"/>
<path d="M82.316 49.3284C82.9964 49.3284 83.548 48.0569 83.548 46.4884C83.548 44.9199 82.9964 43.6484 82.316 43.6484C81.6356 43.6484 81.084 44.9199 81.084 46.4884C81.084 48.0569 81.6356 49.3284 82.316 49.3284Z" fill="#546D70"/>
<path d="M81.908 46.4884C81.908 47.7274 82.211 48.7314 82.586 48.7314C82.96 48.7314 83.263 47.7274 83.263 46.4884C83.263 45.2494 82.96 44.2454 82.586 44.2454C82.212 44.2454 81.908 45.2494 81.908 46.4884Z" fill="#EF7911"/>
<path opacity="0.2" d="M81.2339 46.4414C81.2339 47.1004 81.4769 47.6344 81.6009 47.6344C81.7249 47.6344 81.6819 47.1004 81.6819 46.4414C81.6819 45.7824 81.7249 45.2484 81.6009 45.2484C81.4769 45.2484 81.2339 45.7824 81.2339 46.4414Z" fill="#FBFBFB"/>
<path opacity="0.5" d="M18.304 27.0384C17.763 34.0454 15.82 45.9594 14.557 45.9594C13.294 45.9594 13.331 34.0454 13.954 27.0384C14.555 20.2884 15.513 20.2614 16.692 20.2614C17.872 20.2614 18.825 20.2884 18.304 27.0384Z" fill="url(#paint3_linear_110_1734)"/>
<path opacity="0.5" d="M79.524 27.0384C80.147 34.0454 80.3 45.9594 79.18 45.9594C78.06 45.9594 76.217 34.0454 75.667 27.0384C75.137 20.2884 75.982 20.2614 77.028 20.2614C78.074 20.2614 78.924 20.2884 79.524 27.0384Z" fill="url(#paint4_linear_110_1734)"/>
<path d="M12.591 92.2004H12.541C11.92 92.2004 11.417 91.6974 11.417 91.0764V85.0804C11.417 84.4604 11.92 83.9574 12.541 83.9574H12.591C13.212 83.9574 13.715 84.4604 13.715 85.0804V91.0764C13.715 91.6974 13.212 92.2004 12.591 92.2004Z" fill="#E5E5E5"/>
<path d="M81.715 92.2004H81.664C81.044 92.2004 80.541 91.6974 80.541 91.0764V85.0804C80.541 84.4604 81.044 83.9574 81.664 83.9574H81.715C82.335 83.9574 82.839 84.4604 82.839 85.0804V91.0764C82.838 91.6974 82.335 92.2004 81.715 92.2004Z" fill="#E5E5E5"/>
<path d="M6.5 161.672H6.357C2.846 161.672 0 158.826 0 155.315V117.877C0 114.366 2.846 111.52 6.357 111.52H6.5V161.672Z" fill="#546D70"/>
<path d="M87.4751 161.672H87.6181C91.1291 161.672 93.9751 158.826 93.9751 155.315V117.877C93.9751 114.366 91.1291 111.52 87.6181 111.52H87.4751V161.672Z" fill="#546D70"/>
<defs>
<linearGradient id="paint0_linear_110_1734" x1="66.8467" y1="18.8221" x2="37.5635" y2="44.2649" gradientUnits="userSpaceOnUse">
<stop stop-color="white"/>
<stop offset="1" stop-color="#71898E"/>
</linearGradient>
<linearGradient id="paint1_linear_110_1734" x1="37.5913" y1="58.6953" x2="63.4368" y2="58.6953" gradientUnits="userSpaceOnUse">
<stop stop-color="white"/>
<stop offset="0.1856" stop-color="#C4C4C4"/>
<stop offset="0.4039" stop-color="#858585"/>
<stop offset="0.5638" stop-color="#5E5E5E"/>
<stop offset="0.6468" stop-color="#4F4F4F"/>
<stop offset="0.7343" stop-color="#525252"/>
<stop offset="0.7916" stop-color="#5A5A5A"/>
<stop offset="0.8404" stop-color="#696969"/>
<stop offset="0.8843" stop-color="#7F7F7F"/>
<stop offset="0.925" stop-color="#9A9A9A"/>
<stop offset="0.9628" stop-color="#BBBBBB"/>
<stop offset="0.9986" stop-color="#E2E2E2"/>
<stop offset="1" stop-color="#E4E4E4"/>
</linearGradient>
<linearGradient id="paint2_linear_110_1734" x1="56.8792" y1="77.5286" x2="43.0559" y2="98.6584" gradientUnits="userSpaceOnUse">
<stop stop-color="white"/>
<stop offset="1" stop-color="#71898E"/>
</linearGradient>
<linearGradient id="paint3_linear_110_1734" x1="16.2285" y1="13.9128" x2="15.7734" y2="45.2282" gradientUnits="userSpaceOnUse">
<stop stop-color="white"/>
<stop offset="1" stop-color="#71898E"/>
</linearGradient>
<linearGradient id="paint4_linear_110_1734" x1="78.0085" y1="13.9494" x2="77.5545" y2="45.1887" gradientUnits="userSpaceOnUse">
<stop stop-color="white"/>
<stop offset="1" stop-color="#71898E"/>
</linearGradient>
</defs>
</svg>
