<svg width="93" height="189" viewBox="0 0 93 189" fill="none" xmlns="http://www.w3.org/2000/svg">
<path d="M85.4271 26.6557C85.3551 26.6557 85.2841 26.6537 85.2101 26.6507C83.7121 26.5727 82.593 25.7037 82.712 24.7097C84.28 11.5307 67.9141 5.28066 53.4221 3.93366C51.7861 3.77966 50.0471 3.67868 48.2491 3.63068C46.6091 3.59168 44.9711 3.60366 43.3861 3.67066C41.6391 3.73366 39.9091 3.85966 38.2181 4.04666C23.5681 5.62466 8.46906 11.8817 9.99406 24.7097C10.1121 25.7027 8.99306 26.5717 7.49406 26.6507C6.00306 26.7287 4.68505 25.9877 4.56705 24.9937C3.07205 12.4117 15.9341 2.79267 37.3341 0.486666C39.2111 0.278666 41.143 0.137667 43.066 0.0686666C44.809 -0.00433339 46.633 -0.0193397 48.458 0.0246603C50.446 0.0766603 52.3691 0.189659 54.1831 0.360659C71.0111 1.92466 90.0041 9.31468 88.1381 24.9937C88.0261 25.9387 86.8331 26.6557 85.4271 26.6557Z" fill="#2D2D2D"/>
<path d="M85.4271 161.604C85.3551 161.604 85.2841 161.606 85.2101 161.609C83.7121 161.687 82.593 162.556 82.712 163.55C84.28 176.729 67.9141 182.979 53.4221 184.326C51.7861 184.48 50.0471 184.581 48.2491 184.629C46.6091 184.668 44.9711 184.656 43.3861 184.589C41.6391 184.526 39.9091 184.4 38.2181 184.213C23.5681 182.635 8.46906 176.378 9.99406 163.55C10.1121 162.557 8.99306 161.688 7.49406 161.609C6.00306 161.531 4.68505 162.272 4.56705 163.266C3.07205 175.848 15.9341 185.467 37.3341 187.773C39.2111 187.981 41.143 188.122 43.066 188.191C44.809 188.264 46.633 188.279 48.458 188.235C50.446 188.182 52.3691 188.07 54.1831 187.899C71.0111 186.335 90.0041 178.945 88.1381 163.266C88.0261 162.321 86.8331 161.604 85.4271 161.604Z" fill="#2D2D2D"/>
<path d="M85.7581 26.8516L84.1071 40.7027H9.26504L7.61404 26.8516C6.04404 13.6496 20.913 6.11966 38.104 4.26766C39.9 4.06966 41.7151 3.93666 43.5471 3.87066C45.2621 3.79866 46.976 3.78667 48.691 3.82867C50.514 3.87667 52.3381 3.97867 54.1341 4.14767C71.7961 5.78867 87.3631 13.3606 85.7581 26.8516Z" fill="#D11207"/>
<path d="M53.8 184.629C52.004 184.779 50.18 184.879 48.357 184.917C46.642 184.961 44.928 184.948 43.213 184.886C41.381 184.823 39.566 184.705 37.77 184.523C20.706 182.847 5.91004 176.083 7.11604 164.229L8.93004 146.385H83.772L85.586 164.229C86.822 176.345 71.336 183.141 53.8 184.629Z" fill="#D11207"/>
<path d="M83.7729 36.7257H8.93091V149.458H83.7729V36.7257Z" fill="#D11207"/>
<path d="M77.1569 140.309C77.1569 152.508 15.6739 152.508 15.6739 140.309C15.6739 140.309 13.594 82.4277 14.991 50.0877C14.692 42.6207 25.0789 38.1897 37.4979 36.7737C44.3109 35.9917 51.741 36.1277 58.345 37.1817C69.376 38.9377 78.112 43.2327 77.831 50.0877C79.056 81.8387 77.1569 140.309 77.1569 140.309Z" fill="#484D51"/>
<path opacity="0.2" d="M61.2749 61.7847H35.4299L37.4979 36.6737C44.3109 36.0477 51.7409 36.1567 58.3449 37.0007L61.2749 61.7847Z" fill="url(#paint0_linear_110_1567)"/>
<path d="M25.058 62.5517L17.126 42.6317C15.316 41.9267 13.351 44.3456 14.56 47.2406L22.168 65.7497L25.058 62.5517Z" fill="#B90A0C"/>
<path d="M68.1111 62.6236L75.5791 42.6317C77.3891 41.9267 79.3541 44.3456 78.1441 47.2406L70.6651 65.3317L68.1111 62.6236Z" fill="#B90A0C"/>
<path d="M75.767 69.7277V168.697C75.767 170.909 74.527 172.774 72.855 173.216C72.603 173.279 72.35 173.311 72.088 173.311H20.617C20.354 173.311 20.102 173.279 19.85 173.216C18.178 172.774 16.938 170.909 16.938 168.697V69.7277C16.937 52.4017 75.767 52.4017 75.767 69.7277Z" fill="#F71616"/>
<path opacity="0.2" d="M72.8551 68.9877V165.904C72.8551 169.995 69.5391 173.311 65.4481 173.311H27.2561C23.1651 173.311 19.8491 169.995 19.8491 165.904V68.9877C19.8911 68.8467 19.9531 68.6367 19.9951 68.4947C21.3761 57.6657 71.3911 57.6667 72.7091 68.4947C72.7511 68.6367 72.8131 68.8467 72.8551 68.9877Z" fill="url(#paint1_linear_110_1567)"/>
<path d="M34.583 167.201C33.324 167.201 32.303 166.18 32.303 164.921V72.7946C32.303 71.5356 33.324 70.5146 34.583 70.5146C35.842 70.5146 36.863 71.5356 36.863 72.7946V164.921C36.862 166.18 35.842 167.201 34.583 167.201Z" fill="#D11207"/>
<path d="M42.3979 167.201C41.1389 167.201 40.1179 166.18 40.1179 164.921V72.7946C40.1179 71.5356 41.1389 70.5146 42.3979 70.5146C43.6569 70.5146 44.6779 71.5356 44.6779 72.7946V164.921C44.6779 166.18 43.6569 167.201 42.3979 167.201Z" fill="#D11207"/>
<path d="M50.2141 167.201C48.9551 167.201 47.9351 166.18 47.9351 164.921V72.7946C47.9351 71.5356 48.9561 70.5146 50.2141 70.5146C51.4731 70.5146 52.494 71.5356 52.494 72.7946V164.921C52.494 166.18 51.4731 167.201 50.2141 167.201Z" fill="#D11207"/>
<path d="M58.03 167.201C56.771 167.201 55.75 166.18 55.75 164.921V72.7946C55.75 71.5356 56.771 70.5146 58.03 70.5146C59.289 70.5146 60.31 71.5356 60.31 72.7946V164.921C60.31 166.18 59.289 167.201 58.03 167.201Z" fill="#D11207"/>
<path d="M28.4149 70.6876H26.8679V166.037H28.4149V70.6876Z" fill="#E5E5E5"/>
<path d="M25.553 72.2226H29.73C29.73 72.2226 29.498 66.8116 27.641 66.8116C25.785 66.8116 25.553 72.2226 25.553 72.2226Z" fill="#232323"/>
<path d="M29.73 162.015H25.553C25.553 162.015 25.785 167.426 27.642 167.426C29.498 167.426 29.73 162.015 29.73 162.015Z" fill="#232323"/>
<path d="M65.8449 70.6876H64.2979V166.037H65.8449V70.6876Z" fill="#E5E5E5"/>
<path d="M62.9829 72.2226H67.1599C67.1599 72.2226 66.9279 66.8116 65.0709 66.8116C63.2149 66.8116 62.9829 72.2226 62.9829 72.2226Z" fill="#232323"/>
<path d="M67.1599 162.015H62.9829C62.9829 162.015 63.2149 167.426 65.0719 167.426C66.9279 167.426 67.1599 162.015 67.1599 162.015Z" fill="#232323"/>
<path d="M0.463961 52.6907L11.202 50.0607L10.845 48.6037C10.359 46.6177 8.35395 45.4017 6.36795 45.8877L2.82297 46.7557C0.83697 47.2417 -0.379033 49.2467 0.106967 51.2327L0.463961 52.6907Z" fill="#F71616"/>
<path d="M0.463867 52.6907L11.2019 50.0607L11.3889 50.8267C11.4289 50.9907 11.3289 51.1557 11.1649 51.1967L1.02087 53.6807C0.856874 53.7207 0.691879 53.6207 0.650879 53.4567L0.463867 52.6907Z" fill="#4D4D4D"/>
<path d="M12.5098 50.5657C13.1718 50.5727 13.2288 45.3487 12.5668 45.3407L11.3498 45.5627C10.7408 45.6737 10.3508 46.2757 10.4978 46.8767L11.2078 49.7767C11.3508 50.3537 11.9338 50.7067 12.5098 50.5657Z" fill="#F71616"/>
<path d="M11.8231 48.4977C11.8231 49.2457 11.216 49.8527 10.468 49.8527C9.72005 49.8527 9.11304 49.2457 9.11304 48.4977C9.11304 47.7497 9.72005 47.1427 10.468 47.1427C11.217 47.1437 11.8231 47.7497 11.8231 48.4977Z" fill="#F71616"/>
<path d="M92.1479 52.6907L81.4099 50.0607L81.7669 48.6037C82.2529 46.6177 84.2579 45.4017 86.2439 45.8877L89.7889 46.7557C91.7749 47.2417 92.9909 49.2467 92.5049 51.2327L92.1479 52.6907Z" fill="#F71616"/>
<path d="M92.1479 52.6907L81.4099 50.0607L81.2219 50.8267C81.1819 50.9907 81.2819 51.1557 81.4459 51.1967L91.5909 53.6807C91.7549 53.7207 91.92 53.6207 91.961 53.4567L92.1479 52.6907Z" fill="#4D4D4D"/>
<path d="M80.1019 50.5657C79.1269 50.5767 79.0699 45.3517 80.0449 45.3407L81.2619 45.5627C81.8709 45.6737 82.2609 46.2757 82.1129 46.8767L81.4029 49.7767C81.2609 50.3537 80.6789 50.7067 80.1019 50.5657Z" fill="#F71616"/>
<path d="M81.638 50.3367C82.3863 50.3367 82.993 49.73 82.993 48.9817C82.993 48.2333 82.3863 47.6267 81.638 47.6267C80.8896 47.6267 80.283 48.2333 80.283 48.9817C80.283 49.73 80.8896 50.3367 81.638 50.3367Z" fill="#F71616"/>
<path d="M81.638 69.8207C81.004 69.8207 80.489 69.3067 80.489 68.6717V62.3507C80.489 61.7167 81.003 61.2017 81.638 61.2017C82.272 61.2017 82.787 61.7157 82.787 62.3507V68.6717C82.786 69.3067 82.272 69.8207 81.638 69.8207Z" fill="#E5E5E5"/>
<path d="M11.752 69.8207C11.118 69.8207 10.603 69.3067 10.603 68.6717V62.3507C10.603 61.7167 11.117 61.2017 11.752 61.2017C12.387 61.2017 12.901 61.7157 12.901 62.3507V68.6717C12.901 69.3067 12.387 69.8207 11.752 69.8207Z" fill="#E5E5E5"/>
<path d="M16.8979 42.1556C17.3329 42.0486 31.735 33.6187 31.735 33.6187L35.554 7.06763L34.344 34.4196L26.179 39.2116L16.8979 42.1556Z" fill="#A80905"/>
<path d="M75.8069 42.1556C75.3719 42.0486 60.9699 33.6187 60.9699 33.6187L57.1509 7.06763L58.3609 34.4196L66.5259 39.2116L75.8069 42.1556Z" fill="#A80905"/>
<path opacity="0.3" d="M12.901 40.7026C12.901 40.7026 8.83602 22.1467 14.187 16.9677C20.628 10.7347 32.157 8.96765 32.157 8.96765L29.729 30.2177L12.901 40.7026Z" fill="url(#paint2_linear_110_1567)"/>
<path opacity="0.3" d="M80.1869 40.7026C80.1869 40.7026 84.2519 22.1467 78.9009 16.9677C72.4599 10.7347 60.9299 8.96765 60.9299 8.96765L63.3579 30.2177L80.1869 40.7026Z" fill="url(#paint3_linear_110_1567)"/>
<path opacity="0.2" d="M37.8719 7.0687C38.1719 8.0387 36.9019 34.2177 36.9019 34.2177H55.7499L54.1529 7.0687C48.7639 5.9517 43.0989 5.9167 37.8719 7.0687Z" fill="url(#paint4_linear_110_1567)"/>
<defs>
<linearGradient id="paint0_linear_110_1567" x1="35.4298" y1="49.0297" x2="61.2753" y2="49.0297" gradientUnits="userSpaceOnUse">
<stop stop-color="white"/>
<stop offset="0.1856" stop-color="#C4C4C4"/>
<stop offset="0.4039" stop-color="#858585"/>
<stop offset="0.5638" stop-color="#5E5E5E"/>
<stop offset="0.6468" stop-color="#4F4F4F"/>
<stop offset="0.7343" stop-color="#525252"/>
<stop offset="0.7916" stop-color="#5A5A5A"/>
<stop offset="0.8404" stop-color="#696969"/>
<stop offset="0.8843" stop-color="#7F7F7F"/>
<stop offset="0.925" stop-color="#9A9A9A"/>
<stop offset="0.9628" stop-color="#BBBBBB"/>
<stop offset="0.9986" stop-color="#E2E2E2"/>
<stop offset="1" stop-color="#E4E4E4"/>
</linearGradient>
<linearGradient id="paint1_linear_110_1567" x1="19.8494" y1="116.842" x2="72.8555" y2="116.842" gradientUnits="userSpaceOnUse">
<stop stop-color="white"/>
<stop offset="0.0653" stop-color="#FEE3E3"/>
<stop offset="0.2794" stop-color="#FB8C8C"/>
<stop offset="0.4542" stop-color="#F94C4C"/>
<stop offset="0.581" stop-color="#F82525"/>
<stop offset="0.6468" stop-color="#F71616"/>
<stop offset="0.725" stop-color="#F71919"/>
<stop offset="0.7762" stop-color="#F62121"/>
<stop offset="0.8198" stop-color="#F53030"/>
<stop offset="0.859" stop-color="#F34646"/>
<stop offset="0.8954" stop-color="#F06161"/>
<stop offset="0.9296" stop-color="#ED8383"/>
<stop offset="0.9622" stop-color="#E9ABAB"/>
<stop offset="0.9927" stop-color="#E5D8D8"/>
<stop offset="1" stop-color="#E4E4E4"/>
</linearGradient>
<linearGradient id="paint2_linear_110_1567" x1="11.423" y1="24.8351" x2="32.1582" y2="24.8351" gradientUnits="userSpaceOnUse">
<stop stop-color="white"/>
<stop offset="0.0653" stop-color="#FEE3E3"/>
<stop offset="0.2794" stop-color="#FB8C8C"/>
<stop offset="0.4542" stop-color="#F94C4C"/>
<stop offset="0.581" stop-color="#F82525"/>
<stop offset="0.6468" stop-color="#F71616"/>
<stop offset="0.725" stop-color="#F71919"/>
<stop offset="0.7762" stop-color="#F62121"/>
<stop offset="0.8198" stop-color="#F53030"/>
<stop offset="0.859" stop-color="#F34646"/>
<stop offset="0.8954" stop-color="#F06161"/>
<stop offset="0.9296" stop-color="#ED8383"/>
<stop offset="0.9622" stop-color="#E9ABAB"/>
<stop offset="0.9927" stop-color="#E5D8D8"/>
<stop offset="1" stop-color="#E4E4E4"/>
</linearGradient>
<linearGradient id="paint3_linear_110_1567" x1="81.6656" y1="24.8351" x2="60.9305" y2="24.8351" gradientUnits="userSpaceOnUse">
<stop stop-color="white"/>
<stop offset="0.0653" stop-color="#FEE3E3"/>
<stop offset="0.2794" stop-color="#FB8C8C"/>
<stop offset="0.4542" stop-color="#F94C4C"/>
<stop offset="0.581" stop-color="#F82525"/>
<stop offset="0.6468" stop-color="#F71616"/>
<stop offset="0.725" stop-color="#F71919"/>
<stop offset="0.7762" stop-color="#F62121"/>
<stop offset="0.8198" stop-color="#F53030"/>
<stop offset="0.859" stop-color="#F34646"/>
<stop offset="0.8954" stop-color="#F06161"/>
<stop offset="0.9296" stop-color="#ED8383"/>
<stop offset="0.9622" stop-color="#E9ABAB"/>
<stop offset="0.9927" stop-color="#E5D8D8"/>
<stop offset="1" stop-color="#E4E4E4"/>
</linearGradient>
<linearGradient id="paint4_linear_110_1567" x1="45.8116" y1="7.5416" x2="46.3116" y2="33.4583" gradientUnits="userSpaceOnUse">
<stop stop-color="white"/>
<stop offset="0.0653" stop-color="#FEE3E3"/>
<stop offset="0.2794" stop-color="#FB8C8C"/>
<stop offset="0.4542" stop-color="#F94C4C"/>
<stop offset="0.581" stop-color="#F82525"/>
<stop offset="0.6468" stop-color="#F71616"/>
<stop offset="0.725" stop-color="#F71919"/>
<stop offset="0.7762" stop-color="#F62121"/>
<stop offset="0.8198" stop-color="#F53030"/>
<stop offset="0.859" stop-color="#F34646"/>
<stop offset="0.8954" stop-color="#F06161"/>
<stop offset="0.9296" stop-color="#ED8383"/>
<stop offset="0.9622" stop-color="#E9ABAB"/>
<stop offset="0.9927" stop-color="#E5D8D8"/>
<stop offset="1" stop-color="#E4E4E4"/>
</linearGradient>
</defs>
</svg>
